<svg xmlns="http://www.w3.org/2000/svg" width="106" height="94" viewBox="0 0 106 94">
  <path id="icon-ai" d="M38.278,0A11.738,11.738,0,0,0,26.9,8.849c-.147,0-.258-.037-.4-.037a11.775,11.775,0,0,0-11.778,11.75,10.8,10.8,0,0,0,.313,2.57A14.543,14.543,0,0,0,7.416,43.126,14.618,14.618,0,0,0,9.091,69.38a13.423,13.423,0,0,0-.258,2.589,13.226,13.226,0,0,0,13.25,13.219,12.505,12.505,0,0,0,2.208-.22,13.223,13.223,0,0,0,25.764-4.186V11.75A11.775,11.775,0,0,0,38.278,0ZM106,55.813a14.606,14.606,0,0,0-7.416-12.686,14.422,14.422,0,0,0,1.527-6.407,14.687,14.687,0,0,0-9.146-13.586A11.639,11.639,0,0,0,79.5,8.813c-.147,0-.276.037-.4.037a11.758,11.758,0,0,0-23.151,2.9V80.781a13.223,13.223,0,0,0,25.764,4.186,12.505,12.505,0,0,0,2.208.22,13.226,13.226,0,0,0,13.25-13.219,13.424,13.424,0,0,0-.258-2.589A14.688,14.688,0,0,0,106,55.813Z" fill="#1d2739"/>
</svg>
