<svg xmlns="http://www.w3.org/2000/svg" width="119.796" height="94" viewBox="0 0 119.796 94">
  <g id="icon-imageAnalysis" transform="translate(-41.125 0)">
    <path id="Icon_metro-images" data-name="Icon metro-images" d="M102.446,16.893H96.571V11.018A5.892,5.892,0,0,0,90.7,5.143H8.446a5.892,5.892,0,0,0-5.875,5.875v70.5a5.892,5.892,0,0,0,5.875,5.875h5.875v5.875A5.892,5.892,0,0,0,20.2,99.143h82.25a5.892,5.892,0,0,0,5.875-5.875v-70.5a5.892,5.892,0,0,0-5.875-5.875ZM14.321,22.768v58.75H8.457l-.01-.011V11.028l.01-.01H90.686l.011.011v5.864H20.2A5.892,5.892,0,0,0,14.321,22.768Zm88.125,70.489-.011.011H20.207l-.01-.011V22.778l.01-.01h82.229l.011.011ZM90.7,37.455a8.813,8.813,0,1,1-8.812-8.812A8.812,8.812,0,0,1,90.7,37.455Zm5.875,49.937h-70.5V75.643l20.562-35.25,23.5,29.375h5.875L96.571,52.143Z" transform="translate(38.554 -5.143)" fill="#1d2739"/>
    <path id="Icon_material-search" data-name="Icon material-search" d="M49.531,44.128H46.685l-1.009-.973a23.452,23.452,0,1,0-2.522,2.522l.973,1.009v2.846L62.14,67.508l5.368-5.368Zm-21.615,0A16.211,16.211,0,1,1,44.128,27.916,16.19,16.19,0,0,1,27.916,44.128Z" transform="translate(92 4.996)" fill="#1d2739" stroke="#fffefe" stroke-width="2"/>
  </g>
</svg>
