<svg xmlns="http://www.w3.org/2000/svg" width="70.5" height="94" viewBox="0 0 70.5 94">
  <path id="icon-medical" d="M69.215,19.277,51.241,1.285A4.4,4.4,0,0,0,48.12,0H47V23.5H70.5V22.38A4.392,4.392,0,0,0,69.215,19.277Zm-28.09,5.691V0H4.406A4.4,4.4,0,0,0,0,4.406V89.594A4.4,4.4,0,0,0,4.406,94H66.094A4.4,4.4,0,0,0,70.5,89.594V29.375H45.531A4.419,4.419,0,0,1,41.125,24.969Zm11.75,29.375v8.813a1.473,1.473,0,0,1-1.469,1.469H41.125V74.906a1.473,1.473,0,0,1-1.469,1.469H30.844a1.473,1.473,0,0,1-1.469-1.469V64.625H19.094a1.473,1.473,0,0,1-1.469-1.469V54.344a1.473,1.473,0,0,1,1.469-1.469H29.375V42.594a1.473,1.473,0,0,1,1.469-1.469h8.813a1.473,1.473,0,0,1,1.469,1.469V52.875H51.406A1.473,1.473,0,0,1,52.875,54.344Z" fill="#1d2739"/>
</svg>
