<svg xmlns="http://www.w3.org/2000/svg" xmlns:xlink="http://www.w3.org/1999/xlink" width="410" height="402" viewBox="0 0 410 402">
  <defs>
    <clipPath id="clip-path">
      <rect id="長方形_1267" data-name="長方形 1267" width="410" height="402" transform="translate(5724.746 -1039.5)" fill="#fff"/>
    </clipPath>
  </defs>
  <g id="マスクグループ_3" data-name="マスクグループ 3" transform="translate(-5724.746 1039.5)" clip-path="url(#clip-path)">
    <g id="undraw_job_hunt_re_q203" transform="translate(5725.351 -1034.92)">
      <path id="パス_184" data-name="パス 184" d="M485.3,521.438c-.428.451-.874.9-1.324,1.341H432.567c-.423-.434-.84-.879-1.257-1.341-.017-.017-.034-.039-.051-.056-5.585-6.188-9.1-15.183-11.294-24.668-.141-.575-.265-1.155-.389-1.741-.575-2.666-1.043-5.36-1.426-8.031-.068-.462-.135-.924-.192-1.387-.518-3.838-.868-7.614-1.093-11.159-.028-.457-.056-.9-.085-1.347a183.081,183.081,0,0,1-.011-21.191s.068,0,.2.006c.378.017,1.285.056,2.621.135,3.68.225,10.624.789,18.79,2.119.445.073.9.152,1.347.231a142.125,142.125,0,0,1,20.385,4.937l1.246.423.006.028,5.112,25.649,2.119-22.831c1.685.761,3.325,1.572,4.9,2.44.439.242.868.485,1.291.733a40.641,40.641,0,0,1,9.677,7.631C501.224,491.94,497.634,508.549,485.3,521.438Z" transform="translate(-197.989 -125.381)" fill="#f2f2f2" stroke="#707070" stroke-width="1"/>
      <path id="パス_185" data-name="パス 185" d="M463.706,488.577l.891.987c10.3,11.53,16.45,22.232,18.344,31.966.03.141.051.282.081.424l-.659.125-.635.112c-1.933-10.613-9.131-21.583-18.114-31.642-.286-.327-.577-.659-.878-.982-3.84-4.225-7.969-8.278-12.144-12.067-.321-.3-.65-.593-.98-.889-5.536-4.973-11.107-9.473-16.074-13.266-.35-.27-.7-.535-1.055-.8-8.434-6.385-14.978-10.617-16.437-11.545-.176-.116-.275-.177-.3-.192l.345-.551v-.009l.35-.556c.023.015.357.219.962.613,2.27,1.464,8.373,5.491,15.964,11.218.341.26.7.525,1.046.795,4.034,3.074,8.447,6.6,12.9,10.451q1.681,1.45,3.279,2.9c.335.292.665.589.985.885Q458.353,482.7,463.706,488.577Z" transform="translate(-197.876 -125.043)" fill="#fff" stroke="#707070" stroke-width="1"/>
      <path id="パス_186" data-name="パス 186" d="M438.834,453.24c-.152.366-.316.733-.485,1.093a35.156,35.156,0,0,1-4.9,7.749c-.287.338-.58.682-.885,1.02q-1.234,1.361-2.626,2.632a35.278,35.278,0,0,1-13.188,7.53c-.158.051-.31.1-.468.147.028.445.056.885.085,1.341.158-.045.31-.09.468-.141a36.549,36.549,0,0,0,13.983-7.9,37.718,37.718,0,0,0,2.8-2.812c.3-.333.6-.676.879-1.02a36.308,36.308,0,0,0,5.2-8.313c.158-.361.316-.721.468-1.088C439.714,453.4,439.268,453.319,438.834,453.24Z" transform="translate(-197.96 -125.597)" fill="#fff" stroke="#707070" stroke-width="1"/>
      <path id="パス_187" data-name="パス 187" d="M460.545,459.479c-.068.333-.147.665-.231,1a35.261,35.261,0,0,1-9.4,16.722c-.321.321-.648.637-.986.941-.1.1-.2.2-.3.287a35.52,35.52,0,0,1-31.46,8.319c-.13-.022-.265-.056-.394-.085.067.462.13.93.2,1.392.13.028.254.056.383.079A36.836,36.836,0,0,0,450.5,479.4c.135-.124.276-.242.406-.372.338-.316.665-.631.992-.947a36.649,36.649,0,0,0,9.665-17.156q.127-.507.237-1.014C461.384,459.766,460.967,459.62,460.545,459.479Z" transform="translate(-198.192 -126.572)" fill="#fff" stroke="#707070" stroke-width="1"/>
      <path id="パス_188" data-name="パス 188" d="M474.005,466.3c.005.316.005.637,0,.952a35.338,35.338,0,0,1-9.671,23.919c-.316.338-.643.665-.969.992-.355.344-.71.688-1.077,1.014a35.6,35.6,0,0,1-42.2,4.052q-.168-.088-.327-.192c.135.6.27,1.184.417,1.77.1.056.2.113.3.163a36.918,36.918,0,0,0,42.686-4.813c.366-.333.733-.665,1.076-1.015.338-.321.659-.648.981-.986A36.775,36.775,0,0,0,475.3,467.984q.017-.456.017-.913C474.884,466.806,474.444,466.553,474.005,466.3Z" transform="translate(-198.504 -127.638)" fill="#fff" stroke="#707070" stroke-width="1"/>
      <path id="パス_189" data-name="パス 189" d="M330.085,160.432H231.014a3.113,3.113,0,0,1-3.11-3.11V82.1a3.113,3.113,0,0,1,3.11-3.11h121.6a3.113,3.113,0,0,1,3.11,3.11v52.692a25.672,25.672,0,0,1-25.644,25.643Z" transform="translate(-168.522 -67.114)" fill="#fff" stroke="#707070" stroke-width="1"/>
      <path id="パス_190" data-name="パス 190" d="M330.033,160.662H230.962a3.4,3.4,0,0,1-3.391-3.391V82.045a3.4,3.4,0,0,1,3.391-3.392h121.6a3.4,3.4,0,0,1,3.391,3.392v52.692A25.955,25.955,0,0,1,330.033,160.662ZM230.962,79.781a2.267,2.267,0,0,0-2.264,2.265V157.27a2.267,2.267,0,0,0,2.264,2.264h99.071a24.826,24.826,0,0,0,24.8-24.8V82.045a2.267,2.267,0,0,0-2.264-2.265Z" transform="translate(-168.47 -67.062)" fill="#ccc" stroke="#707070" stroke-width="1"/>
      <path id="パス_191" data-name="パス 191" d="M333.137,108.155H259.609a2.545,2.545,0,0,1,0-5.09h73.529a2.545,2.545,0,1,1,0,5.09Z" transform="translate(-173.079 -70.876)" fill="#ccc" stroke="#707070" stroke-width="1"/>
      <path id="パス_192" data-name="パス 192" d="M333.137,128.936H259.609a2.545,2.545,0,0,1,0-5.09h73.529a2.545,2.545,0,1,1,0,5.09Z" transform="translate(-173.079 -74.124)" fill="#ccc" stroke="#707070" stroke-width="1"/>
      <path id="パス_193" data-name="パス 193" d="M333.137,150.311H259.609a2.545,2.545,0,0,1,0-5.09h73.529a2.545,2.545,0,1,1,0,5.09Z" transform="translate(-173.079 -77.464)" fill="#ccc" stroke="#707070" stroke-width="1"/>
      <circle id="楕円形_33" data-name="楕円形 33" cx="15.199" cy="15.199" r="15.199" transform="translate(167.984 0)" fill="#11b7da" stroke="#707070" stroke-width="1"/>
      <path id="パス_194" data-name="パス 194" d="M371.1,89.374a1.69,1.69,0,0,1-1.352-.676L365.6,83.169A1.691,1.691,0,1,1,368.3,81.14l2.713,3.617,6.968-10.451a1.691,1.691,0,0,1,2.814,1.876L372.5,88.621a1.691,1.691,0,0,1-1.36.752Z" transform="translate(-189.986 -66.265)" fill="#fff" stroke="#707070" stroke-width="1"/>
      <path id="パス_195" data-name="パス 195" d="M282.572,237.869H183.5a25.672,25.672,0,0,1-25.643-25.643V159.534a3.114,3.114,0,0,1,3.11-3.11h121.6a3.114,3.114,0,0,1,3.11,3.11v75.225A3.114,3.114,0,0,1,282.572,237.869Z" transform="translate(-157.577 -79.215)" fill="#fff" stroke="#707070" stroke-width="1"/>
      <path id="パス_196" data-name="パス 196" d="M282.52,238.1H183.45a25.955,25.955,0,0,1-25.925-25.925V159.482a3.4,3.4,0,0,1,3.392-3.392h121.6a3.4,3.4,0,0,1,3.392,3.392v75.225a3.4,3.4,0,0,1-3.392,3.392Zm-121.6-80.881a2.267,2.267,0,0,0-2.265,2.265v52.692a24.826,24.826,0,0,0,24.8,24.8H282.52a2.267,2.267,0,0,0,2.265-2.265V159.482a2.267,2.267,0,0,0-2.265-2.265Z" transform="translate(-157.524 -79.163)" fill="#ccc" stroke="#707070" stroke-width="1"/>
      <path id="パス_197" data-name="パス 197" d="M263.091,185.592H189.562a2.545,2.545,0,1,1,0-5.09h73.529a2.545,2.545,0,1,1,0,5.09Z" transform="translate(-162.133 -82.977)" fill="#ccc" stroke="#707070" stroke-width="1"/>
      <path id="パス_198" data-name="パス 198" d="M263.091,206.373H189.562a2.545,2.545,0,1,1,0-5.09h73.529a2.545,2.545,0,1,1,0,5.09Z" transform="translate(-162.133 -86.225)" fill="#ccc" stroke="#707070" stroke-width="1"/>
      <path id="パス_199" data-name="パス 199" d="M263.091,227.748H189.562a2.545,2.545,0,1,1,0-5.09h73.529a2.545,2.545,0,1,1,0,5.09Z" transform="translate(-162.133 -89.565)" fill="#ccc" stroke="#707070" stroke-width="1"/>
      <circle id="楕円形_34" data-name="楕円形 34" cx="15.199" cy="15.199" r="15.199" transform="translate(109.934 65.94)" fill="#11b7da" stroke="#707070" stroke-width="1"/>
      <path id="パス_200" data-name="パス 200" d="M302.3,167.527a1.69,1.69,0,0,1-1.352-.676l-4.147-5.529a1.691,1.691,0,1,1,2.705-2.029l2.713,3.617,6.968-10.451A1.691,1.691,0,0,1,312,154.334l-8.293,12.44a1.691,1.691,0,0,1-1.36.752Z" transform="translate(-179.235 -78.477)" fill="#fff" stroke="#707070" stroke-width="1"/>
      <path id="パス_201" data-name="パス 201" d="M421.549,316.213H282.927a25.672,25.672,0,0,1-25.643-25.643v-77.5a4.013,4.013,0,0,1,4.009-4.009H421.549a4.013,4.013,0,0,1,4.008,4.009V312.2a4.013,4.013,0,0,1-4.008,4.009Z" transform="translate(-173.113 -87.44)" fill="#fff" stroke="#707070" stroke-width="1"/>
      <path id="パス_202" data-name="パス 202" d="M421.5,316.442H282.874a25.955,25.955,0,0,1-25.925-25.925v-77.5a4.3,4.3,0,0,1,4.29-4.29H421.5a4.3,4.3,0,0,1,4.29,4.29v99.135A4.3,4.3,0,0,1,421.5,316.442ZM261.24,209.852a3.167,3.167,0,0,0-3.163,3.163v77.5a24.826,24.826,0,0,0,24.8,24.8H421.5a3.167,3.167,0,0,0,3.163-3.164V213.016a3.167,3.167,0,0,0-3.163-3.163Z" transform="translate(-173.061 -87.388)" fill="#ccc" stroke="#707070" stroke-width="1"/>
      <path id="パス_203" data-name="パス 203" d="M395.859,247.391h-96.9a3.354,3.354,0,0,1,0-6.708h96.9a3.354,3.354,0,0,1,0,6.708Z" transform="translate(-179.102 -92.382)" fill="#ccc" stroke="#707070" stroke-width="1"/>
      <path id="パス_204" data-name="パス 204" d="M395.859,274.777h-96.9a3.354,3.354,0,0,1,0-6.708h96.9a3.354,3.354,0,0,1,0,6.708Z" transform="translate(-179.102 -96.661)" fill="#ccc" stroke="#707070" stroke-width="1"/>
      <path id="パス_205" data-name="パス 205" d="M395.859,302.947h-96.9a3.354,3.354,0,0,1,0-6.708h96.9a3.354,3.354,0,1,1,0,6.708Z" transform="translate(-179.102 -101.063)" fill="#ccc" stroke="#707070" stroke-width="1"/>
      <circle id="楕円形_35" data-name="楕円形 35" cx="19.24" cy="19.24" r="19.24" transform="translate(229.699 108.446)" fill="#11b7da" stroke="#707070" stroke-width="1"/>
      <path id="パス_206" data-name="パス 206" d="M448.09,224.409a2.14,2.14,0,0,1-1.712-.856l-5.249-7a2.14,2.14,0,1,1,3.424-2.568l3.434,4.578,8.82-13.23a2.14,2.14,0,1,1,3.562,2.374l-10.5,15.747a2.141,2.141,0,0,1-1.721.952Z" transform="translate(-201.776 -86.709)" fill="#fff" stroke="#707070" stroke-width="1"/>
      <path id="パス_207" data-name="パス 207" d="M350.112,447.2l-7.828,2.618-13.823-28.948,11.554-3.864Z" transform="translate(-51.328 -65.165)" fill="#ffb6b6" stroke="#707070" stroke-width="1"/>
      <path id="パス_208" data-name="パス 208" d="M512.225,524.033l-25.241,6.75-.107-.319c-.878-2.624-.681-3.743.554-6.219a10.291,10.291,0,0,1,5.984-5.2h0l3.441-5.04,9.772.621,2.2-.737Z" transform="translate(-208.907 -135.075)" fill="#2f2e41" stroke="#707070" stroke-width="1"/>
      <path id="パス_209" data-name="パス 209" d="M374.788,455.622h-8.254l-3.927-31.837H374.79Z" transform="translate(-56.664 -66.223)" fill="#ffb6b6" stroke="#707070" stroke-width="1"/>
      <path id="パス_210" data-name="パス 210" d="M532.134,531.561H505.519v-.337c0-2.767,1.078-3.678,3.035-5.634a10.292,10.292,0,0,1,7.325-3.034h0l4.861-3.688,9.07,3.689h2.323Z" transform="translate(-211.904 -135.853)" fill="#2f2e41" stroke="#707070" stroke-width="1"/>
      <path id="パス_211" data-name="パス 211" d="M460.092,222.757a6.028,6.028,0,0,0,8.1,4.456l9.529,9.948,7.458-4.316-13.654-13.86a6.061,6.061,0,0,0-11.431,3.771Z" transform="translate(-204.787 -88.444)" fill="#ffb6b6" stroke="#707070" stroke-width="1"/>
      <path id="パス_212" data-name="パス 212" d="M365.963,209.256l4.3-4.444L345.416,181.8l-25-22.325-6.925,9.785,26.2,24.456Z" transform="translate(-48.988 -24.921)" fill="#e4e4e4" stroke="#707070" stroke-width="1"/>
      <path id="パス_213" data-name="パス 213" d="M508.627,443.79c0-5.585.111-9.569.2-12.771.26-9.369.33-11.887-3.256-28.021l-.921-4.143-5.43,16.29a51.03,51.03,0,0,0-2.625,16.116l8.372,50.234H487.855l-12.532-54.308-.006-16.612a6.128,6.128,0,0,1,0-8.517l4.164-24.887,4.214-33.541h46.162s8.147,16.886.051,33.636v66.545l-4.183,46.011H512.81Z" transform="translate(-206.916 -108.469)" fill="#2f2e41" stroke="#707070" stroke-width="1"/>
      <path id="パス_214" data-name="パス 214" d="M528.894,331.5l-43.178-3.6-.224-.019,3.446-62.025a19.507,19.507,0,0,1,13.221-17.463v-4.341A4.057,4.057,0,0,1,506.21,240h6.309a4.03,4.03,0,0,1,3.624,2.24l3.085,6.17,11.665,9.332c5.762,4.609,1.124,50.822.875,53.261l2.821,14.107a5.357,5.357,0,0,1-5.239,6.407Q529.124,331.514,528.894,331.5Z" transform="translate(-208.775 -92.274)" fill="#e4e4e4" stroke="#707070" stroke-width="1"/>
      <path id="パス_215" data-name="パス 215" d="M480.9,362.873a6.028,6.028,0,0,0,.114-9.243l4.284-13.093-7.321-4.544-5.79,18.574a6.061,6.061,0,0,0,8.713,8.305Z" transform="translate(-206.506 -107.275)" fill="#ffb6b6" stroke="#707070" stroke-width="1"/>
      <path id="パス_216" data-name="パス 216" d="M338.9,197.077,332.96,195.1,324.375,233.4l-7.908,38.1,11.893,1.75,9.223-40.506Z" transform="translate(-49.453 -30.487)" fill="#e4e4e4" stroke="#707070" stroke-width="1"/>
      <circle id="楕円形_36" data-name="楕円形 36" cx="14.181" cy="14.181" r="14.181" transform="translate(281.761 115.396)" fill="#ffb6b6" stroke="#707070" stroke-width="1"/>
      <path id="パス_217" data-name="パス 217" d="M485.66,207.932a10.647,10.647,0,0,1,1.135-3.851c.663,1.442,2.731,1.692,4.146.974a11.668,11.668,0,0,0,3.375-3.3c2.669-3.226,6.339-5.843,10.5-6.32s8.745,1.623,10.317,5.5a2.607,2.607,0,0,1,3.275-.519,5.889,5.889,0,0,1,2.3,2.721,17.339,17.339,0,0,1,.577,13.874c-1.752,4.432-6.077,10.4-10.54,12.077-2.71,1.016-5.446-.284-8.328,0,.151-3.145.761-7.025.911-10.17.083-1.722.095-3.649-1.082-4.91a3.4,3.4,0,0,0-5.18.6,7.8,7.8,0,0,0-.973-2.773,2.653,2.653,0,0,0-2.491-1.276c-1.2.2-1.946,1.432-3.05,1.949a3.315,3.315,0,0,1-3.684-.845,5.013,5.013,0,0,1-1.2-3.739Z" transform="translate(-208.798 -85.3)" fill="#2f2e41" stroke="#707070" stroke-width="1"/>
      <path id="パス_218" data-name="パス 218" d="M349.845,239.51,333.19,272.819h12.491Z" transform="translate(-52.067 -37.427)" stroke="#707070" stroke-width="1" opacity="0.1"/>
      <path id="パス_219" data-name="パス 219" d="M583.6,535a.669.669,0,0,1-.671.671H264.9a.671.671,0,0,1,0-1.341H582.933a.669.669,0,0,1,.671.671Z" transform="translate(-174.2 -138.268)" fill="#cacaca" stroke="#707070" stroke-width="1"/>
    </g>
  </g>
</svg>
