<svg xmlns="http://www.w3.org/2000/svg" xmlns:xlink="http://www.w3.org/1999/xlink" width="398" height="396" viewBox="0 0 398 396">
  <defs>
    <clipPath id="clip-path">
      <rect id="長方形_1265" data-name="長方形 1265" width="398" height="396" transform="translate(0.09 0.063)" fill="#fff" stroke="#1d2739" stroke-width="1"/>
    </clipPath>
  </defs>
  <g id="Top-icon" transform="translate(-0.09 -0.063)" clip-path="url(#clip-path)">
    <g id="undraw_profile_details_re_ch9r_1_" data-name="undraw_profile_details_re_ch9r (1)" transform="translate(14.132 -0.003)">
      <path id="パス_153" data-name="パス 153" d="M719.248,599.831a1.928,1.928,0,0,1-1.869-1.312,2.3,2.3,0,0,1,.47-2.4l.132-.583-.053-.14a5,5,0,0,0-9.56.039c-1.564,4.174-3.554,8.355-4.044,12.768a18.794,18.794,0,0,0,.269,5.844,74.4,74.4,0,0,1-5.591-28.3,72.772,72.772,0,0,1,.368-7.336q.3-3,.846-5.948a72.456,72.456,0,0,1,12.331-29.209,17.649,17.649,0,0,0,6.882-7.914,15.066,15.066,0,0,0,1.148-3.823c-.335.049-1.263-5.607-1.011-5.954-.467-.785-1.3-1.176-1.813-1.942-2.536-3.811-6.03-3.146-7.854,2.033-3.9,2.18-3.934,5.795-1.543,9.272,1.521,2.212,1.73,5.205,3.065,7.573-.137.195-.28.383-.417.578a70.841,70.841,0,0,0-6.532,11.47,31.736,31.736,0,0,0-1.553-13.393c-1.487-3.975-4.273-7.323-6.727-10.759-2.947-4.128-8.992-2.326-9.511,2.906-.005.051-.01.1-.015.152q.547.342,1.07.726a3.052,3.052,0,0,1,1.1,3.04,2.748,2.748,0,0,1-2.157,2.24l-.053.009a31.734,31.734,0,0,0,.687,4.316c-3.148,13.494,3.648,18.408,13.353,18.629.214.122.423.243.637.359a77.475,77.475,0,0,0-3.438,17.935,74.409,74.409,0,0,0,.044,10.843l-.016-.128a18.206,18.206,0,0,0-5.465-10.246c-4.206-3.829-10.148-5.239-14.685-8.317a2.759,2.759,0,0,0-3.234-.009,3.471,3.471,0,0,0-1.367,3.248q.009.067.018.134a16.911,16.911,0,0,1,1.972,1.053q.547.342,1.07.726a3.053,3.053,0,0,1,1.1,3.04,2.749,2.749,0,0,1-2.157,2.24l-.053.009-.11.018a29.451,29.451,0,0,0,4.8,8.322c1.968,11.779,10.423,12.9,19.466,9.467h.005A76.138,76.138,0,0,0,703.54,615h15.324c.055-.189.1-.383.154-.572a15.743,15.743,0,0,1-4.24-.28c1.137-1.546,2.274-3.1,3.411-4.651a1.083,1.083,0,0,0,.071-.091c.577-.791,1.159-1.577,1.736-2.368h0a31.194,31.194,0,0,0-.747-7.2Z" transform="translate(-381.84 -220.62)" fill="#f2f2f2" stroke="#707070" stroke-width="1"/>
      <path id="パス_154" data-name="パス 154" d="M699.681,429.163c4.061-16.345,11.637-30.265,23.869-40.974a3.172,3.172,0,0,1,4.644-1.108l27.919,19.98a3.977,3.977,0,0,1,1,5.148l-23.869,40.974a3.172,3.172,0,0,1-4.644,1.108l-27.919-19.98a3.977,3.977,0,0,1-1-5.148Z" transform="translate(-387.808 -200.988)" fill="#f2f2f2" stroke="#707070" stroke-width="1"/>
      <path id="パス_155" data-name="パス 155" d="M711.308,418.984c1.047-8.636,7.492-17.464,15.345-26.342A2.97,2.97,0,0,1,731,391.6L755,408.776a3.725,3.725,0,0,1,.937,4.821l-21.24,36.461a2.97,2.97,0,0,1-4.35,1.038l-14.864-10.637C708.985,435.8,707.119,426.193,711.308,418.984Z" transform="translate(-390.083 -201.653)" fill="#fff" stroke="#707070" stroke-width="1"/>
      <path id="パス_156" data-name="パス 156" d="M714.1,456.079c-3.543-16.492-2.952-32.736,3.115-48.651a3.5,3.5,0,0,1,3.589-3.451l33.149,2.607a3.622,3.622,0,0,1,3.113,3.978l-3.115,48.651a3.5,3.5,0,0,1-3.589,3.451l-33.15-2.607A3.622,3.622,0,0,1,714.1,456.079Z" transform="translate(-390.737 -203.536)" fill="#f2f2f2" stroke="#707070" stroke-width="1"/>
      <path id="パス_157" data-name="パス 157" d="M718.849,442.113c-2.835-8.127-1.022-19.3,2-31.277a3.275,3.275,0,0,1,3.361-3.232l28.489,2.241a3.392,3.392,0,0,1,2.916,3.725l-2.772,43.292a3.275,3.275,0,0,1-3.361,3.232l-17.648-1.388c-7.716-.616-13.526-8.039-12.987-16.593Z" transform="translate(-392 -204.065)" fill="#fff" stroke="#707070" stroke-width="1"/>
      <path id="パス_158" data-name="パス 158" d="M709.1,334.627l-14.2-58.261c-1.266-5.132-6.011-8.189-10.661-6.867h0a8.976,8.976,0,0,0-5.5,4.7,10.685,10.685,0,0,0-.706,7.654l16.426,60.017,8.594,36.935a9.049,9.049,0,0,0-2.664,9.3,7.845,7.845,0,0,0,6.976,5.949,7.665,7.665,0,0,0,7.427-5.237,9.153,9.153,0,0,0-1.906-9.525Z" transform="translate(-382.876 -183.895)" fill="#ffb6b6" stroke="#707070" stroke-width="1"/>
      <path id="パス_159" data-name="パス 159" d="M575.973,345.566l14.564-58.151c1.27-5.13-1.408-10.441-6.016-11.93h0a8.041,8.041,0,0,0-6.889.939,9.72,9.72,0,0,0-4.126,6.187L560.048,343.53l-9.585,36.634a8,8,0,0,0-6.567,6.5,8.942,8.942,0,0,0,3.268,9.059,7.065,7.065,0,0,0,8.8-.312,9.037,9.037,0,0,0,2.739-9.272Z" transform="translate(-352.169 -184.756)" fill="#ffb6b6" stroke="#707070" stroke-width="1"/>
      <path id="パス_160" data-name="パス 160" d="M394.432,442.952h-9.281l-4.415-39.675h13.7Z" transform="translate(-87.285 -58.768)" fill="#ffb6b6" stroke="#707070" stroke-width="1"/>
      <path id="パス_161" data-name="パス 161" d="M685.642,628.71H657.1v-.4c0-6.8,4.973-12.311,11.107-12.311h0l5.213-4.383L683.152,616h2.491Z" transform="translate(-378.17 -233.795)" fill="#2f2e41" stroke="#707070" stroke-width="1"/>
      <path id="パス_162" data-name="パス 162" d="M311.054,442.723l-9.136-1.807L303.855,401l13.484,2.666Z" transform="translate(-69.216 -58.436)" fill="#ffb6b6" stroke="#707070" stroke-width="1"/>
      <path id="パス_163" data-name="パス 163" d="M598.829,628.35l-28.1-5.554.063-.394c1.077-6.694,6.846-11.152,12.885-9.959h0l5.826-3.3,8.881,6.208,2.453.485Z" transform="translate(-358.369 -233.435)" fill="#2f2e41" stroke="#707070" stroke-width="1"/>
      <path id="パス_164" data-name="パス 164" d="M606.632,404.215s-8.649,13.578-8.3,18.135,3.407.922.353,4.557-4.834,1.2-3.333,5.687,2.112,1.583,1.5,4.491.611,114.137.611,114.137h15.9s8.969-64.5,7.834-67.507-1.109-1.7.1-4.9,2.346-7.007,2.346-7.007l12.571-39.215,9.7,55.214,11.415,65.609h15.241s2.61-96.48,3.764-97.683-.227-3.9-1.674-5.461-1.159-3.138-.693-6.346,2.435-5,2.367-7.011,4.208-34-2.511-39.09S606.632,404.215,606.632,404.215Z" transform="translate(-363.889 -202.451)" fill="#2f2e41" stroke="#707070" stroke-width="1"/>
      <path id="パス_165" data-name="パス 165" d="M660.091,244.168l-17.791-5.11L634,226.364l-19.722,2.687-4.2,17.316L596.035,255.4c25.169.167,11.615,80.985,15.314,86.2,3.01,4.243-15.026,14.338-9.373,20.778s3.563,3.863,2.251,10.874-10.873,14.43,0,14.357,76.485-1.113,74.61-9.424-1.845-6.2-4.672-11.411-4.729-2.3-3.778-9.988-2.138-13.637.014-17.039c3.3-5.223-.026-42.924-3.141-41.918Z" transform="translate(-364.169 -177.654)" fill="#11b7da" stroke="#707070" stroke-width="1"/>
      <path id="パス_166" data-name="パス 166" d="M672.554,247.241s13.014-6.128,17.7,5.3c1.5,3.65,2.757,12.818,3.972,10.785s.043,2.424.794,2.429c.671,0,1.7-1.2.923,2.946a8.779,8.779,0,0,0,2.164,7.556l-22.618,15.014Z" transform="translate(-381.711 -180.458)" fill="#11b7da" stroke="#707070" stroke-width="1"/>
      <path id="パス_167" data-name="パス 167" d="M601.513,259.4s-13.014-6.128-17.7,5.3c-1.318,3.214-.99,10.355-3.557,9.553s-.745,2.219-1.083,3.268c-.377,1.17,1.27,4.48-1.044,3.321s-2.169,7.573-2.169,7.573l22.619,15.014Z" transform="translate(-359.566 -182.23)" fill="#11b7da" stroke="#707070" stroke-width="1"/>
      <path id="パス_168" data-name="パス 168" d="M610.708,239.648l-3.749,7.272s-10.31,6.233-10.31,7.272,1.875,9.522,0,16.189,3.578,19.2,4.687,29.522c4.687,43.633-9.25,59.487-12.185,87.267l29.743,9.628s4.938-73,4.938-89.622S610.708,239.648,610.708,239.648Z" transform="translate(-362.591 -179.59)" fill="#2f2e41" stroke="#707070" stroke-width="1"/>
      <path id="パス_169" data-name="パス 169" d="M651.6,236l7.662,4.83s10.027,2.45,10.147,3.481.155,11.981,2.783,18.328,1.9,9.722,8.98,28.484c3.616,9.586,11.916,86.286,11.916,86.286L664.7,391.169s-13.31-71.7-15.226-88.189S651.6,236,651.6,236Z" transform="translate(-376.302 -179.059)" fill="#2f2e41" stroke="#707070" stroke-width="1"/>
      <ellipse id="楕円形_17" data-name="楕円形 17" cx="19.381" cy="21.481" rx="19.381" ry="21.481" transform="translate(236.76 4.074)" fill="#ffb6b6" stroke="#707070" stroke-width="1"/>
      <path id="パス_170" data-name="パス 170" d="M633.377,211.59c-4.581-3.969,1.681-21.429-5.884-17.7,0,0-9.247-6.522-11.1-2.236-2.151,4.963-9.8,2.711-14.5.96a13.714,13.714,0,0,0,.782-2.972,21.458,21.458,0,0,1-2.749,2.04,5.745,5.745,0,0,1-1.681-1.528,4.112,4.112,0,0,1-.429-4.3c.782-1.332,2.4-1.742,3.346-2.926a1.389,1.389,0,0,0,.158-1.17,3.646,3.646,0,0,1,.464-2.8,2.965,2.965,0,0,1,2.242-1.392,1,1,0,0,0,.515-.124,12.05,12.05,0,0,0,2.194-1.919c-1.1.056.245-7.415,11.163-6,2.749-.112,4.184,3.248,6.891,3.779,6.561-4.156,12.418,1.839,15.267,7.569S645.986,205.068,633.377,211.59Z" transform="translate(-364.481 -169.345)" fill="#2f2e41" stroke="#707070" stroke-width="1"/>
      <path id="パス_171" data-name="パス 171" d="M481.4,182.724H307.671c-6.882.006-12.46,6.186-12.47,13.813V370.046c.009,7.629,5.587,13.811,12.47,13.821H481.4c6.882-.011,12.457-6.193,12.463-13.821V196.537C493.857,188.911,488.281,182.73,481.4,182.724Z" transform="translate(-295.202 -171.295)" fill="#fff" stroke="#707070" stroke-width="1"/>
      <path id="パス_172" data-name="パス 172" d="M427.251,228.041h-18.56a3.83,3.83,0,0,1,0-7.619h18.56a3.83,3.83,0,0,1,0,7.619Z" transform="translate(-320.432 -176.788)" fill="#11b7da" stroke="#707070" stroke-width="1"/>
      <path id="パス_173" data-name="パス 173" d="M746.544,432.933h-18.56a3.83,3.83,0,0,1,0-7.619h18.56a3.83,3.83,0,0,1,0,7.619Z" transform="translate(-393.631 -206.647)" fill="#11b7da" stroke="#707070" stroke-width="1"/>
      <path id="パス_174" data-name="パス 174" d="M461.057,321.449H346.26a3.83,3.83,0,0,1,0-7.619h114.8a3.83,3.83,0,0,1,0,7.619Z" transform="translate(-306.119 -190.4)" fill="#e6e6e6" stroke="#707070" stroke-width="1"/>
      <path id="パス_175" data-name="パス 175" d="M461.057,350.881H346.26a3.83,3.83,0,0,1,0-7.619h114.8a3.83,3.83,0,0,1,0,7.619Z" transform="translate(-306.119 -194.689)" fill="#e6e6e6" stroke="#707070" stroke-width="1"/>
      <path id="パス_176" data-name="パス 176" d="M461.057,380.313H346.26a3.83,3.83,0,0,1,0-7.619h114.8a3.83,3.83,0,0,1,0,7.619Z" transform="translate(-306.119 -198.978)" fill="#e6e6e6" stroke="#707070" stroke-width="1"/>
      <path id="パス_177" data-name="パス 177" d="M441.886,242.72H374.018c-6.882.006-12.46,6.186-12.47,13.813v22.652c.009,7.629,5.587,13.811,12.47,13.821h67.868c6.882-.011,12.457-6.194,12.463-13.821V256.534C454.343,248.908,448.767,242.727,441.886,242.72Zm11.088,36.465c0,6.791-4.967,12.3-11.095,12.3H393.161c-16.7,0-30.237-15-30.237-33.514v-1.435c.01-6.786,4.972-12.283,11.095-12.29h67.868c6.121.007,11.081,5.505,11.088,12.29Z" transform="translate(-310.412 -180.038)" fill="#e6e6e6" stroke="#707070" stroke-width="1"/>
      <ellipse id="楕円形_18" data-name="楕円形 18" cx="11.686" cy="12.952" rx="11.686" ry="12.952" transform="translate(86.614 70.096)" fill="#e6e6e6" stroke="#707070" stroke-width="1"/>
      <path id="パス_178" data-name="パス 178" d="M146.858,130.124l-52.319-.206,16.5-4.571,2.055-7.52,15.817-.1,4.736,7.436,11.961,3.436,1.086.312Z" transform="translate(-21.673 -17.156)" fill="#e6e6e6" stroke="#707070" stroke-width="1"/>
      <path id="パス_179" data-name="パス 179" d="M412.624,272.3c2.508-2.173-.92-11.73,3.221-9.69,0,0,5.061-3.57,6.078-1.224,1.177,2.716,5.365,1.484,7.937.525a7.508,7.508,0,0,1-.428-1.627,11.761,11.761,0,0,0,1.5,1.117,3.146,3.146,0,0,0,.92-.836,2.251,2.251,0,0,0,.235-2.351c-.428-.729-1.311-.954-1.831-1.6a.76.76,0,0,1-.086-.641,2,2,0,0,0-.254-1.533,1.623,1.623,0,0,0-1.227-.762.546.546,0,0,1-.282-.068,6.6,6.6,0,0,1-1.2-1.051c.6.031-.134-4.059-6.111-3.284-1.5-.061-2.29,1.778-3.772,2.069-3.591-2.275-6.8,1.007-8.357,4.143S405.721,268.726,412.624,272.3Z" transform="translate(-320.965 -180.978)" fill="#e6e6e6" stroke="#707070" stroke-width="1"/>
      <path id="パス_180" data-name="パス 180" d="M481.4,182.724H307.671c-6.882.006-12.46,6.186-12.47,13.813V370.046c.009,7.629,5.587,13.811,12.47,13.821H481.4c6.882-.011,12.457-6.193,12.463-13.821V196.537C493.857,188.911,488.281,182.73,481.4,182.724Zm11.088,187.323c0,6.792-4.967,12.3-11.095,12.3H386.078c-49.43,0-89.5-44.414-89.5-99.2V196.537c.01-6.786,4.972-12.283,11.095-12.29H481.4c6.121.007,11.081,5.505,11.088,12.29Z" transform="translate(-295.202 -171.295)" fill="#e6e6e6" stroke="#707070" stroke-width="1"/>
      <path id="パス_181" data-name="パス 181" d="M707.55,632.762,490.769,633a.912.912,0,0,1,0-1.814l216.781-.234a.912.912,0,0,1,0,1.814Z" transform="translate(-339.849 -236.613)" fill="#cacaca" stroke="#707070" stroke-width="1"/>
    </g>
  </g>
</svg>
