<svg xmlns="http://www.w3.org/2000/svg" xmlns:xlink="http://www.w3.org/1999/xlink" width="479" height="246" viewBox="0 0 479 246">
  <defs>
    <clipPath id="clip-path">
      <rect id="長方形_1262" data-name="長方形 1262" width="479" height="246" transform="translate(4045 -1009)" fill="#fff" stroke="#1d2739" stroke-width="1"/>
    </clipPath>
  </defs>
  <g id="マスクグループ_2" data-name="マスクグループ 2" transform="translate(-4045 1009)" clip-path="url(#clip-path)">
    <g id="undraw_engineering_team_a7n2" transform="translate(4045 -1008.565)">
      <path id="パス_92" data-name="パス 92" d="M505.907,147.1l-1.5,11.958-3.727,29.7H425.8c.585-6.657,1.384-16.239,2.238-26.583.084-1.033.173-2.073.257-3.119,2.141-26,4.484-55.427,4.484-55.427l9.844,1.834,19.1,3.551,7.783,1.446,20.84,3.881c10.391,1.931,17.538,16.975,15.561,32.756Z" transform="translate(-47.778 -11.629)" fill="#f2f2f2" stroke="#707070" stroke-width="1"/>
      <path id="パス_93" data-name="パス 93" d="M450.208,49.438l9.208,16.113-17.7,12.542-7.549-19.806Z" transform="translate(-48.717 -5.547)" fill="#ffb6b6" stroke="#707070" stroke-width="1"/>
      <circle id="楕円形_11" data-name="楕円形 11" cx="22.811" cy="22.811" r="22.811" transform="translate(366.958 13.512)" fill="#ffb6b6" stroke="#707070" stroke-width="1"/>
      <path id="パス_94" data-name="パス 94" d="M433.83,42.566c-1.811-2.757-1.1-4.2-2.617-5.211,0,0-.61-.408-4.977-.64h0c-.978-7.037-2.2-7.891-2.2-7.891-1.407-.984-3.494-.664-4.793-.062-2.747,1.272-2.428,4.021-4.278,4.546-2.555.726-7.2-3.369-7.661-8.058-.374-3.825,2.09-7.539,3.068-7.343s3.289-2.767,4.542-2.721c.855.031,4.351-1.488,5.291-1.369,1.027.13,4.413,1.9,4.554,1.493.98-2.805.692-3.584,1.524-4.386,1.474-1.422,3.886-.432,7.669.1,7.784,1.094,9.143-1.473,13.132.267,2.015.879,3.7,3.249,6.991,7.953,4.6,6.579,6.9,9.868,6.917,13.7.015,3.913-1.88,3.664-2.712,9.457-.926,6.448,1.042,9.4-1.108,11.491-1.662,1.619-5.04,2-6.815.582-3.039-2.433.938-8.3-2.425-12.592-2.064-2.633-6.215-3.8-8.117-2.5-2.15,1.471-.966,5.79-2.478,6.2-1.295.351-3.193-2.538-3.508-3.018Z" transform="translate(-45.699 -1.143)" fill="#2f2e41" stroke="#707070" stroke-width="1"/>
      <path id="パス_95" data-name="パス 95" d="M488.253,138.377c-.636,10.879-3.163,14.313-4.049,27.161-.193,2.821-.309,6.095-.309,10,0,1,.005,1.958.005,2.9a47.786,47.786,0,0,1-.271,5.813,25.624,25.624,0,0,1-.984,4.7H433.515c-.005-.011-.005-.022-.011-.033a34.122,34.122,0,0,1-.608-3.589q-.066-.548-.116-1.079c-.044-.415-.083-.824-.122-1.228a31.872,31.872,0,0,0-.653-4.585,11.745,11.745,0,0,0-3.108-5.724,15.671,15.671,0,0,0-2.157-1.836c-.138-.094-.271-.188-.409-.282-1.958-1.344-3.81-2.312-5.415-5.055-.028-.039-.05-.083-.072-.122a16.808,16.808,0,0,1-1.516-3.423,11.156,11.156,0,0,1-.282-6.189c1.422-5.321,6.686-5.852,10.99-11.228a18.864,18.864,0,0,0,1.361-1.936c1.947-3.164,2.472-5.951,3.092-9.264.1-.537.188-1.068.26-1.582.056-.387.105-.769.144-1.145a30.138,30.138,0,0,0-.227-8.313c-1.316-7.97-5.2-12.9-2.456-20.055a18.154,18.154,0,0,1,3.318-5.376c2.61-3.059,5.293-5.044,4.829-8.993-.47-3.982-3.49-4.53-3.827-8.009a9.077,9.077,0,0,1,1.482-5.431V74.47c3.451-5.857,12.068-11.25,17.543-11.078a5.5,5.5,0,0,1,2.655.691c2.7,1.593,1.577,5.072,5.719,9.95a22.685,22.685,0,0,0,7.887,5.757c5.237,2.732,9.5,10.791,12.388,21.094.022.078.044.155.066.238a117.97,117.97,0,0,1,3.673,21.216c.265,3.147.42,6.311.453,9.441.028,2.5-.028,4.668-.144,6.6Z" transform="translate(-46.985 -7.113)" fill="#11b7da" stroke="#707070" stroke-width="1"/>
      <g id="グループ_1467" data-name="グループ 1467" transform="translate(383.975 80.086)">
        <path id="パス_96" data-name="パス 96" d="M453.62,189.421l-1,2.787-.63,1.747-1.46,4.066-1.692,4.7H437.957l1.825-4.7.846-2.19,1.4-3.623,2.356-6.084Z" transform="translate(-433.118 -100.97)" fill="#ffb6b6" stroke="#707070" stroke-width="1"/>
        <path id="パス_97" data-name="パス 97" d="M485.921,102.942c-.028.36-.066.758-.105,1.189-.431,4.391-1.449,12.25-2.937,21.216-.785,4.729-1.7,9.767-2.738,14.773-2.223,10.8-4.988,21.437-8.113,28.428a34.686,34.686,0,0,1-1.72,3.407q-.672,1.153-1.41,2.273a66.817,66.817,0,0,1-5.232,6.941c-.072.094-.155.183-.238.277-.3.354-.609.7-.918,1.051-1.516,1.709-3.064,3.3-4.563,4.762-1.825,1.781-3.584,3.357-5.16,4.7H435.122l-.072-.033-2.544-1.128s.724-.852,1.936-2.461c.249-.326.514-.686.8-1.079.354-.481.736-1.012,1.145-1.587.852-1.206,1.82-2.621,2.859-4.225,2.014-3.1,4.308-6.919,6.626-11.338.266-.514.536-1.034.807-1.56.005-.016.017-.033.022-.05.459-.9.913-1.82,1.366-2.76a58.971,58.971,0,0,0,5.26-16.785,65.513,65.513,0,0,0,.89-11.974,34.538,34.538,0,0,0-1.626-9.59v-.005c-.221-.68-.47-1.361-.752-2.035a27.207,27.207,0,0,0-1.809-3.584c-3.125-5.188-5.663-5.4-7.682-11.056a21.947,21.947,0,0,1-1.538-9.452v-.005a12.9,12.9,0,0,1,.244-1.488v-.005c.028-.138.066-.282.105-.42a11.23,11.23,0,0,1,1.626-3.584,12.476,12.476,0,0,1,5.536-4.352l.006-.006a15.8,15.8,0,0,1,4.425-1.134c8.08-.719,14.346,6.073,17.77,9.784a51.267,51.267,0,0,0,3.639,3.611c8.611,7.688,10.973,2.776,11.586.238a8.745,8.745,0,0,0,.172-.951Z" transform="translate(-432.506 -90.208)" fill="#11b7da" stroke="#707070" stroke-width="1"/>
        <path id="パス_98" data-name="パス 98" d="M492.7,104.229a2.415,2.415,0,0,1-.028.277c.011-.083.017-.166.022-.244C492.695,104.245,492.695,104.234,492.7,104.229Z" transform="translate(-439.257 -91.781)" fill="#11b7da" stroke="#707070" stroke-width="1"/>
      </g>
      <path id="パス_99" data-name="パス 99" d="M405.124,235.682H108.65a5,5,0,1,0,0,9.994H405.124a5,5,0,0,0,0-9.994Z" transform="translate(-11.63 -26.445)" fill="#e6e6e6" stroke="#707070" stroke-width="1"/>
      <path id="パス_100" data-name="パス 100" d="M347.646,264.763H182.754a5,5,0,0,0,0,9.994H347.646a5,5,0,1,0,0-9.994Z" transform="translate(-19.946 -29.709)" fill="#e6e6e6" stroke="#707070" stroke-width="1"/>
      <path id="パス_101" data-name="パス 101" d="M146.442,49.638l18.685-7.863L173.141,58.2l-19.635,8.014Z" transform="translate(-16.432 -4.687)" fill="#ffb6b6" stroke="#707070" stroke-width="1"/>
      <path id="パス_102" data-name="パス 102" d="M146.442,49.638l18.685-7.863L173.141,58.2l-19.635,8.014Z" transform="translate(-16.432 -4.687)" stroke="#707070" stroke-width="1" opacity="0.1"/>
      <path id="パス_103" data-name="パス 103" d="M140.166,43.378,158.6,64.615s-12.823,40.472-25.646,44.078-36.465,21.238-36.465,21.238L66.835,110.7,81.261,89.46s34.862-47.685,44.078-47.685a59.228,59.228,0,0,1,14.826,1.6Z" transform="translate(-7.499 -4.687)" fill="#11b7da" stroke="#707070" stroke-width="1"/>
      <path id="パス_104" data-name="パス 104" d="M112.9,190.029H69.989L67.276,186.4,56.2,171.6l-2.549-3.406s-9.617-17.631-7.614-33.66S68.879,114.9,68.879,114.9h.858l25.509,22.416-1.523,20.861L101.8,171.6l11.1,18.433Z" transform="translate(-5.135 -12.892)" fill="#2f2e41" stroke="#707070" stroke-width="1"/>
      <path id="パス_105" data-name="パス 105" d="M81.5,197.372h-11.5v-17.03Z" transform="translate(-7.854 -20.236)" fill="#2f2e41" stroke="#707070" stroke-width="1"/>
      <path id="パス_106" data-name="パス 106" d="M352.7,166.994l-1.43,7.421-3.55,18.433H276.4c.557-4.131,1.318-10.078,2.132-16.5.08-.641.164-1.286.244-1.935,2.04-16.137,4.272-34.4,4.272-34.4l9.377,1.138,18.192,2.2,7.413.9,19.851,2.408A17.2,17.2,0,0,1,352.7,166.994Z" transform="translate(-31.014 -15.711)" fill="#f2f2f2" stroke="#707070" stroke-width="1"/>
      <path id="パス_107" data-name="パス 107" d="M471.152,198.646H432.468c.589-.693.922-1.094.922-1.094l11.6-1.915,23.894-3.943s1.09,2.817,2.272,6.952Z" transform="translate(-48.526 -21.51)" fill="#2f2e41" stroke="#707070" stroke-width="1"/>
      <path id="パス_108" data-name="パス 108" d="M289.231,59.66l16.823,23.792-29.345.877-3.15-22.359Z" transform="translate(-30.696 -6.694)" fill="#a0616a" stroke="#707070" stroke-width="1"/>
      <path id="パス_109" data-name="パス 109" d="M289.231,59.66l16.823,23.792-29.345.877-3.15-22.359Z" transform="translate(-30.696 -6.694)" stroke="#707070" stroke-width="1" opacity="0.1"/>
      <path id="uuid-ae755ff6-bb09-410e-86b1-7d1b81a37005-2569" d="M195.821,114.04c-2.159-6.227-7.121-10.161-11.084-8.786s-5.424,7.536-3.264,13.765a16.494,16.494,0,0,0,4.128,6.606l9.479,26.269,12.232-4.711-10.644-25.4a16.5,16.5,0,0,0-.848-7.746Z" transform="translate(-20.251 -11.78)" fill="#a0616a" stroke="#707070" stroke-width="1"/>
      <path id="パス_110" data-name="パス 110" d="M315.978,98.707l-.023,24.247L313.7,131.91l-4.64,18.421-3.378,16.942L303.165,179.9l-.9,4.508q-1.016.679-2.024,1.3H241.631a45.078,45.078,0,0,1-5.193-3.554,19.761,19.761,0,0,0,1.975-2.256c1.779-2.348,3.931-6.2,2.613-9.87a6.66,6.66,0,0,1-.264-2.753c.537-6.9,7.774-18.569,7.774-18.569l-1.5-17.319-.657-7.589,4.633-37.006,15.1-8.78,2.607-.252,25.738-1.39,10.638.613.485.132,10.394,21.594Z" transform="translate(-26.53 -8.569)" fill="#ccc" stroke="#707070" stroke-width="1"/>
      <g id="グループ_1468" data-name="グループ 1468" transform="translate(273.14 68.323)">
        <path id="パス_111" data-name="パス 111" d="M325.626,198.663H312.8l-.565-5.811-.012-.116,3.63-.248,9.445-.645.164,3.478.128,2.669Z" transform="translate(-308.174 -89.849)" fill="#ffb6b6" stroke="#707070" stroke-width="1"/>
        <path id="パス_112" data-name="パス 112" d="M328.27,104.635l5.387,31.6-4.4,31.1-.685,4.841-1.21,8.547-.373,2.629.012.284.092,2.132H311.87l-.561-5.81-.048-.521-1.146-11.9-.02-.2L307.662,142.1l4.768-18.24.353-1.342v0l2.075-31.232L313.251,77.09l-.016-.132.092.06c.084.052.168.1.248.16a31.691,31.691,0,0,1,14.694,27.457Z" transform="translate(-307.662 -76.958)" fill="#ccc" stroke="#707070" stroke-width="1"/>
      </g>
      <path id="パス_113" data-name="パス 113" d="M250.919,94.163l-5.856-6.056s-12.535,5.651-13.16,8.786-22.757,49.182-22.757,49.182l-9.629-25.717-12.534,8.368s10.057,39.927,19.462,41.8,40.928-47.258,40.928-47.258l3.544-29.107Z" transform="translate(-20.981 -9.886)" fill="#ccc" stroke="#707070" stroke-width="1"/>
      <path id="パス_114" data-name="パス 114" d="M467.7,178.449H11.7a11.706,11.706,0,0,0,0,23.412h456a11.706,11.706,0,1,0,0-23.412Z" transform="translate(0 -20.023)" fill="#e6e6e6" stroke="#707070" stroke-width="1"/>
      <path id="パス_115" data-name="パス 115" d="M311.148,137.312l-.887,41.371a7.364,7.364,0,0,1-7.363,7.207h-76.1a7.364,7.364,0,0,1-7.353-6.962l-2.262-41.371a7.364,7.364,0,0,1,7.353-7.766h79.252a7.364,7.364,0,0,1,7.363,7.522Z" transform="translate(-24.368 -14.563)" fill="#3f3d56" stroke="#707070" stroke-width="1"/>
      <circle id="楕円形_12" data-name="楕円形 12" cx="18.208" cy="18.208" r="18.208" transform="translate(145.714 18.521)" fill="#ffb6b6" stroke="#707070" stroke-width="1"/>
      <path id="パス_116" data-name="パス 116" d="M147.964,94.63l2,21.638,13.624,54.9-11.77,4.125-19.886-59.825-2.747-24.043Z" transform="translate(-14.496 -10.259)" fill="#ffb6b6" stroke="#707070" stroke-width="1"/>
      <path id="パス_117" data-name="パス 117" d="M132.354,137.312l-.887,41.371a7.364,7.364,0,0,1-7.363,7.207H48a7.364,7.364,0,0,1-7.353-6.962l-2.262-41.371a7.364,7.364,0,0,1,7.353-7.766h79.252a7.364,7.364,0,0,1,7.363,7.522Z" transform="translate(-4.306 -14.563)" fill="#3f3d56" stroke="#707070" stroke-width="1"/>
      <ellipse id="楕円形_13" data-name="楕円形 13" cx="14.38" cy="6.36" rx="14.38" ry="6.36" transform="translate(136.885 158.885)" fill="#ffb6b6" stroke="#707070" stroke-width="1"/>
      <path id="パス_118" data-name="パス 118" d="M118.516,93.143l8.215-43.78s22.841-3.206,23.642,4.408-.573,44.822-.573,44.822l-31.284-5.45Z" transform="translate(-13.298 -5.464)" fill="#11b7da" stroke="#707070" stroke-width="1"/>
      <path id="パス_119" data-name="パス 119" d="M170.584,39.806s11.264-4.02,16.015-6.183,14.19,12.923,14.4,4.956-3.052-11.309-3.052-11.309-.814-17.43-18.375-15.251c0,0,3.863-8.72-8.816-10.069S138.352,31.22,140.118,35.8s3.884,8.359-1.128,13.251-14.4,32.5-7.256,39.934,7.609,10.654,2.717,15.276-16.456,14.673-3.953,16.418-1.144.442,8.177-7.758S161.6,105.052,156.52,91.9s3.745-32.006,2.641-34.866,2.474-21.019,2.474-21.019,8.326-1.223,8.949,3.794Z" transform="translate(-14.012 -0.214)" fill="#2f2e41" stroke="#707070" stroke-width="1"/>
      <g id="グループ_1469" data-name="グループ 1469" transform="translate(228.067 0)">
        <circle id="楕円形_14" data-name="楕円形 14" cx="19.821" cy="19.821" r="19.821" transform="translate(1.653 21.935)" fill="#a0616a" stroke="#707070" stroke-width="1"/>
        <path id="パス_120" data-name="パス 120" d="M279.948,15.108c-.574.335-1.342-.172-1.526-.81a3.32,3.32,0,0,1,.243-1.945l1.069-3.168c.758-2.246,1.563-4.571,3.206-6.281C285.42.324,289.36-.332,292.907.143c4.555.611,9.049,3.077,11.167,7.156s1.216,9.77-2.611,12.315c5.454,6.252,7.356,13.219,7.055,21.51s-9.335,15.922-15.228,21.762c-1.316-.8-2.512-4.536-1.788-5.894s-.313-2.931.583-4.182,1.646.741.74-.5c-.572-.785,1.66-2.59.81-3.06-4.11-2.272-5.477-7.4-8.059-11.318a19.283,19.283,0,0,0-14.083-8.468A13.316,13.316,0,0,0,262.56,31.5a8.373,8.373,0,0,0-3.6,8.091,7.186,7.186,0,0,1,1.495-11.246,11.738,11.738,0,0,1,2.492-11.064c2.656-2.928,13.429-2.429,17.306-1.659l-.3-.514Z" transform="translate(-256.892 0)" fill="#2f2e41" stroke="#707070" stroke-width="1"/>
        <path id="パス_121" data-name="パス 121" d="M283.54,33.313c5.135.554,8.843,5,11.974,9.11,1.8,2.368,3.695,4.982,3.65,7.959-.046,3.009-2.058,5.591-3.02,8.443a12.724,12.724,0,0,0,3.7,13.4,7.392,7.392,0,0,1-8.332-5.779c-.743-4.317,2.53-8.484,2.142-12.848-.341-3.844-3.371-6.8-5.947-9.677s-4.994-6.689-3.81-10.362l-.359-.249Z" transform="translate(-259.882 -3.738)" fill="#2f2e41" stroke="#707070" stroke-width="1"/>
      </g>
      <g id="グループ_1470" data-name="グループ 1470" transform="translate(322.032 68.037)">
        <path id="uuid-aec20554-f6ec-4c5b-9d97-717cd04239bf-2570" d="M369.2,179.325c-5.086,2.893-7.717,7.863-5.875,11.1s7.457,3.515,12.545.62a14.645,14.645,0,0,0,5.1-4.674l21.4-12.53-6.094-9.916L375.821,177.33a14.646,14.646,0,0,0-6.625,1.995Z" transform="translate(-362.734 -86.431)" fill="#ffb6b6" stroke="#707070" stroke-width="1"/>
        <path id="パス_122" data-name="パス 122" d="M443.971,77.645c-.639-.253-6.25-2.378-11.372.427-5.884,3.222-6.792,10.578-7.111,13.158-.736,5.96,1.433,7.3,1.891,13.329.857,11.288,3.116-1.589-.492,3.563-1.249,1.784-14,29.422-21.036,34.836-13.679,10.529-22.366,17.944-22.366,17.944l9.917,10.772a116.718,116.718,0,0,0,29.521-13.169c14.207-9.225,21.311-13.838,26.807-22.861.473-.777,11.8-20.008,5.716-41.273-1.387-4.85-3.929-13.737-11.475-16.728Z" transform="translate(-365.062 -76.636)" fill="#11b7da" stroke="#707070" stroke-width="1"/>
      </g>
      <path id="パス_123" data-name="パス 123" d="M497.417,137.312l-.887,41.371a7.364,7.364,0,0,1-7.363,7.207h-76.1a7.364,7.364,0,0,1-7.353-6.962l-2.262-41.371a7.364,7.364,0,0,1,7.353-7.766h79.252a7.364,7.364,0,0,1,7.363,7.522Z" transform="translate(-45.269 -14.563)" fill="#3f3d56" stroke="#707070" stroke-width="1"/>
    </g>
  </g>
</svg>
