<svg xmlns="http://www.w3.org/2000/svg" xmlns:xlink="http://www.w3.org/1999/xlink" width="482" height="397" viewBox="0 0 482 397">
  <defs>
    <clipPath id="clip-path">
      <rect id="長方形_1268" data-name="長方形 1268" width="482" height="397" transform="translate(413.302 1017.534)" fill="#fff" stroke="#707070" stroke-width="1"/>
    </clipPath>
  </defs>
  <g id="マスクグループ_4" data-name="マスクグループ 4" transform="translate(-413.302 -1017.534)" clip-path="url(#clip-path)">
    <g id="icon-news" transform="translate(412.988 1018.502)">
      <g id="グループ_1475" data-name="グループ 1475" transform="translate(180.766 0)">
        <rect id="長方形_1269" data-name="長方形 1269" width="5.491" height="16.308" transform="translate(238.551 294.894)" fill="#f2f2f2" stroke="#707070" stroke-width="1"/>
        <path id="パス_220" data-name="パス 220" d="M457.182,310.881H396.013a8.234,8.234,0,0,1-8.234-8.234h0a8.234,8.234,0,0,1,8.234-8.234h61.169a8.234,8.234,0,0,1,8.234,8.234h0A8.234,8.234,0,0,1,457.182,310.881Z" transform="translate(-185.299 -3.442)" fill="#f2f2f2" stroke="#707070" stroke-width="1"/>
        <path id="パス_221" data-name="パス 221" d="M462.54,309.981h0a6.666,6.666,0,0,0,6.666-6.666V224.11a6.666,6.666,0,0,0-6.666-6.666h0a6.666,6.666,0,0,0-6.666,6.666c-20.246,15.494-12.017,46.329,0,79.206a6.666,6.666,0,0,0,6.666,6.666Z" transform="translate(-185.951 -2.542)" fill="#f2f2f2" stroke="#707070" stroke-width="1"/>
        <path id="パス_222" data-name="パス 222" d="M453.028,275.25a22.4,22.4,0,0,1-4.751,9.781c-4.36,5.16-10.538,7.5-15.411,8.563a35.98,35.98,0,0,1-7.7.879l-20.581,1.7-16.264,1.34-16.343,1.349c.931,3.916,1.819,8.415,2.663,13.227.1.574.2,1.157.3,1.74h-33.19l-.557-1.74-3.411-10.573L330.867,286.4a17.179,17.179,0,0,1-1.044-13.192c.009-.026.009-.052.017-.078a13.079,13.079,0,0,1,8.693-8.328l4.917-1.488c13.941-3.255,33.477-8.328,48.375-12.261,12.444-3.289,21.642-5.8,21.642-5.8l.026-.174,2.576-17.613,25.68-2.254,8.345-.74a22.182,22.182,0,0,0-.113,3.994c0,.191,0,.392.009.592.017.609.044,1.305.078,2.08.009.261.026.531.044.809.026.54.061,1.114.1,1.732a.656.656,0,0,0,.009.131c.044.775.1,1.619.183,2.524.017.374.052.757.087,1.149.165,1.975.374,4.238.644,6.814q.026.392.078.783c.035.409.078.818.122,1.236.087.731.165,1.479.252,2.263.009.078.017.148.026.226.078.688.165,1.392.244,2.123.1.792.191,1.6.3,2.428q.091.835.209,1.723c.035.278.07.566.1.853.044.3.078.618.122.931.07.557.139,1.131.217,1.714.165,1.3.348,2.637.531,4.029a35.684,35.684,0,0,1-.313,12.644Z" transform="translate(-184.611 -2.624)" fill="#2f2e41" stroke="#707070" stroke-width="1"/>
        <path id="パス_223" data-name="パス 223" d="M453.364,275.25l-6.727,2.907L410.88,293.594l-5.961,2.576-14.637,6.318q.627,3.3,1.34,6.518c.226,1.036.452,2.062.7,3.081.139.583.27,1.157.418,1.74H363.114l-.226-1.74-.862-6.814c-1.714-1.532-2.724-4.464-3.333-7.58a69.351,69.351,0,0,1-.975-8.72.3.3,0,0,0-.009-.087c-.244-4.247,8.05-7.066,11.365-9.712l4.073-1.349c8.415-5.839,20.92-14.681,33.025-23.27,4.586-3.255,9.12-6.474,13.34-9.477,13.123-9.346,23.339-16.647,23.339-16.647l-.766-3.22,8.345-.74a22.178,22.178,0,0,0-.113,3.994c0,.191,0,.392.009.592.017.618.044,1.305.078,2.08.009.261.026.531.044.809.026.54.061,1.114.1,1.732a.657.657,0,0,0,.009.131c.044.774.1,1.619.183,2.524.017.374.052.757.087,1.149.157,1.975.366,4.229.644,6.814q.026.392.078.783c.035.409.078.818.122,1.236.087.731.165,1.488.252,2.263.009.078.018.148.026.226.078.688.165,1.392.244,2.123.1.792.191,1.6.3,2.428q.1.848.209,1.723c.035.278.07.566.1.853.044.3.078.618.122.931.07.557.139,1.131.218,1.714.165,1.3.348,2.637.531,4.029a35.683,35.683,0,0,1-.313,12.644Z" transform="translate(-184.947 -2.624)" fill="#2f2e41" stroke="#707070" stroke-width="1"/>
        <path id="パス_224" data-name="パス 224" d="M459.125,232.069c1.366,5.839.818,9.842.278,15.551-.2,2.106.487,5.134-1.558,6.553-1.749,1.192-64.674.627-65.258-4.247A27.694,27.694,0,0,1,395.9,233.67c4.865-9,7.649-20.015,9.076-27.838,3.02-16.438-3.785-25.367-1.244-41.762a40.511,40.511,0,0,0,.418-7.971c-.348-8.8-3.063-16.264-2.2-23.844a22.937,22.937,0,0,1,3.289-9.5,28.635,28.635,0,0,1,2.028-2.924c4.49-5.726,5.665-10.042,13.462-10.034,1.192,0,2.463-.078,3.751-.139a27.123,27.123,0,0,1,6.031.139c4.473.792,3.481,3.6,6.37,6.683L438,117.592a59.265,59.265,0,0,1,7.632,6.553c4.891,5.308,10.695,11.278,13.575,17.909,1.949,4.5.766,11.374.714,16.282-.061,6.309-2.01,11.609-3.637,17.622-1.418,5.221-1.793,10.7-2.759,16.038-1.244,6.9-2.376,13.706-2.95,20.659-.444,5.456,7.249-3.568,7.266,1.9.017,5.665,0,12.035,1.288,17.517Z" transform="translate(-185.353 -1.281)" fill="#3f3d56" stroke="#707070" stroke-width="1"/>
        <g id="グループ_1471" data-name="グループ 1471" transform="translate(153.541 108.375)">
          <path id="パス_225" data-name="パス 225" d="M349.492,127.151l19.378,3.469-.437,11.346-20.357-4.4a6.59,6.59,0,1,1,1.417-10.419Z" transform="translate(-338.26 -109.839)" fill="#ffb6b6" stroke="#707070" stroke-width="1"/>
          <path id="パス_226" data-name="パス 226" d="M427.356,153.6a10.844,10.844,0,0,1-12.044,5.813c-.331-.07-1.453-.383-3.176-.888-.3-.087-.609-.174-.94-.27-1.958-.566-4.508-1.314-7.423-2.158-2.889-.844-6.161-1.793-9.546-2.767l-.017.009c-1.027-.313-2.088-.618-3.141-.922h-.017c-7.876-2.236-16.116-4.516-22.121-5.978-.278-.078-1.723,1.305-1.993,1.236-.418-.1-.5-1.7-.888-1.793-.844-.209-1.949,1.105-2.645.931-2.532-.618-3.542-6-3.542-6l.113-.905,1.27-10.878.017-.191,7.162-2.254,2.385,2.306,3.307-1.375,3.081,2.306,6.292.627,2.715.278.183.009,15.185,1.523,4.473.452q-.535-2.715-.835-5.369c-.052-.5-.1-.983-.139-1.471l-.009-.009c-.1-1.044-.157-2.071-.2-3.107a28.62,28.62,0,0,1,2.028-2.924c4.49-5.726,5.665-10.042,13.462-10.034,1.192,0,2.463-.078,3.751-.139l2.01,17.8,2.21,19.58.07.635a10.721,10.721,0,0,1-1.036,5.926Z" transform="translate(-338.513 -109.657)" fill="#3f3d56" stroke="#707070" stroke-width="1"/>
        </g>
        <path id="パス_227" data-name="パス 227" d="M389.3,121.165a3.4,3.4,0,0,0-3.385-.348L352.1,135.724a14.554,14.554,0,0,1-9.8.687l-.5-.139c1.408-12.511-2.185-25.976-9.242-40.1a3.438,3.438,0,0,0-3.89,3.516l1.062,39.212.357,13.018c-7.712,9.239-10.5,17.786.661,24.375a3.458,3.458,0,0,0,5.2,2.872l.687-.409,9.285,13.01a5.219,5.219,0,0,1,4.508.322l16.891,9.72,11.5,6.622a3.446,3.446,0,0,0,5.16-2.706l.322-3.916,1.07-12.879,1.758-21.251.835-10.138.131-1.514,2.628-31.772a3.394,3.394,0,0,0-1.436-3.089h0Z" transform="translate(-184.545 -1.124)" fill="#f2f2f2" stroke="#707070" stroke-width="1"/>
        <path id="パス_228" data-name="パス 228" d="M391.94,125.567a3.4,3.4,0,0,0-3.385-.348c-12.233,9.418-24.062,16.968-33.817,14.907a14.554,14.554,0,0,1-9.8.687l-.5-.139c1.408-12.511-2.185-25.976-9.242-40.1a3.438,3.438,0,0,0-3.89,3.516l1.062,39.212.357,13.018c-7.712,9.239-10.5,17.786.661,24.375a3.457,3.457,0,0,0,5.2,2.872l.687-.409,9.285,13.01a5.219,5.219,0,0,1,4.508.322l16.891,9.72,11.5,6.622a3.446,3.446,0,0,0,5.16-2.706l.322-3.916,1.07-12.879,1.758-21.251.835-10.138.131-1.514,2.628-31.772a3.394,3.394,0,0,0-1.436-3.089Z" transform="translate(-184.576 -1.175)" fill="#e6e6e6" stroke="#707070" stroke-width="1"/>
        <rect id="長方形_1270" data-name="長方形 1270" width="26.709" height="1.568" transform="translate(175.142 148.353) rotate(-13.669)" fill="#fff" stroke="#707070" stroke-width="1"/>
        <rect id="長方形_1271" data-name="長方形 1271" width="26.709" height="1.568" transform="translate(175.142 160.116) rotate(-13.669)" fill="#fff" stroke="#707070" stroke-width="1"/>
        <rect id="長方形_1272" data-name="長方形 1272" width="1.568" height="26.709" transform="matrix(0.021, -1, 1, 0.021, 174.936, 170.771)" fill="#fff" stroke="#707070" stroke-width="1"/>
        <rect id="長方形_1273" data-name="長方形 1273" width="1.568" height="26.709" transform="translate(174.923 182.041) rotate(-86.673)" fill="#fff" stroke="#707070" stroke-width="1"/>
        <rect id="長方形_1274" data-name="長方形 1274" width="1.568" height="26.709" transform="translate(173.425 193.238) rotate(-80.881)" fill="#fff" stroke="#707070" stroke-width="1"/>
        <path id="パス_229" data-name="パス 229" d="M277.844,207.461h201.1c1.729,0,3.131,3.971,3.131,8.87V236.01c0,4.9-1.4,8.87-3.131,8.87H307.431c-1.729,0-3.131-3.971-3.131-8.87l-29.587-19.679c0-4.9,1.4-8.87,3.131-8.87h0Z" transform="translate(-183.977 -2.425)" fill="#f2f2f2" stroke="#707070" stroke-width="1"/>
        <path id="パス_230" data-name="パス 230" d="M423.936,80.251q-.209-.366-.444-.7c-.148-.235-.313-.461-.479-.679a3.01,3.01,0,0,0-.244-.313,8.731,8.731,0,0,0-2.541-2.3,1.842,1.842,0,0,0-.183-.1,2.664,2.664,0,0,0-.426-.191,3.448,3.448,0,0,0-.818-.218,2.958,2.958,0,0,0-.392-.026c-.1,0-.191.009-.287.017l-.174.026a1.93,1.93,0,0,0-.217.044,1.727,1.727,0,0,0-.226.07,2.27,2.27,0,0,0-.218.087,1.825,1.825,0,0,0-.226.113c-.078.044-.148.087-.217.131s-.148.1-.218.157q3.994,2.258,7.814,4.786c-.157-.313-.322-.609-.5-.905h0Z" transform="translate(-185.636 -0.885)" fill="#3f3d56" stroke="#707070" stroke-width="1"/>
        <path id="パス_231" data-name="パス 231" d="M423.936,80.251q-.209-.366-.444-.7c-.148-.235-.313-.461-.479-.679a3.01,3.01,0,0,0-.244-.313,8.731,8.731,0,0,0-2.541-2.3,1.842,1.842,0,0,0-.183-.1,2.664,2.664,0,0,0-.426-.191,3.448,3.448,0,0,0-.818-.218,2.958,2.958,0,0,0-.392-.026c-.1,0-.191.009-.287.017l-.174.026a1.93,1.93,0,0,0-.217.044,1.727,1.727,0,0,0-.226.07,2.27,2.27,0,0,0-.218.087,1.825,1.825,0,0,0-.226.113c-.078.044-.148.087-.217.131s-.148.1-.218.157q3.994,2.258,7.814,4.786c-.157-.313-.322-.609-.5-.905h0Z" transform="translate(-185.636 -0.885)" fill="#3f3d56" stroke="#707070" stroke-width="1"/>
        <path id="パス_232" data-name="パス 232" d="M464.688,56.892H182.9v1.74H347.218a135.092,135.092,0,0,1,47.409,8.528h.009c2.028.757,4.02,1.558,6,2.41a132.33,132.33,0,0,1,13.262,6.579q3.994,2.258,7.815,4.786a134.216,134.216,0,0,1,15.42,11.844l.009.009c.217.183.426.366.635.566a135.106,135.106,0,0,1,44.921,100.754V292.12c0,9.729-7.71,17.648-16.534,8.485-.2-.209-.4-.418-.6-.644H296.9v11.9H464.688a19.769,19.769,0,0,0,19.745-19.745V76.637a19.769,19.769,0,0,0-19.745-19.745h0Z" transform="translate(-182.904 -0.665)" fill="#3f3d56" stroke="#707070" stroke-width="1"/>
        <path id="パス_233" data-name="パス 233" d="M423.936,80.251q-.209-.366-.444-.7c-.148-.235-.313-.461-.479-.679a3.01,3.01,0,0,0-.244-.313,8.731,8.731,0,0,0-2.541-2.3,1.842,1.842,0,0,0-.183-.1,2.664,2.664,0,0,0-.426-.191,3.448,3.448,0,0,0-.818-.218,2.958,2.958,0,0,0-.392-.026c-.1,0-.191.009-.287.017l-.174.026a1.93,1.93,0,0,0-.217.044,1.727,1.727,0,0,0-.226.07,2.27,2.27,0,0,0-.218.087,1.825,1.825,0,0,0-.226.113c-.078.044-.148.087-.217.131s-.148.1-.218.157q3.994,2.258,7.814,4.786c-.157-.313-.322-.609-.5-.905h0Z" transform="translate(-185.636 -0.885)" fill="#3f3d56" stroke="#707070" stroke-width="1"/>
        <path id="パス_234" data-name="パス 234" d="M423.936,80.251q-.209-.366-.444-.7c-.148-.235-.313-.461-.479-.679a3.01,3.01,0,0,0-.244-.313,8.731,8.731,0,0,0-2.541-2.3,1.842,1.842,0,0,0-.183-.1,2.664,2.664,0,0,0-.426-.191,3.448,3.448,0,0,0-.818-.218,2.958,2.958,0,0,0-.392-.026c-.1,0-.191.009-.287.017l-.174.026a1.93,1.93,0,0,0-.217.044,1.727,1.727,0,0,0-.226.07,2.27,2.27,0,0,0-.218.087,1.825,1.825,0,0,0-.226.113c-.078.044-.148.087-.217.131s-.148.1-.218.157q3.994,2.258,7.814,4.786c-.157-.313-.322-.609-.5-.905h0Z" transform="translate(-185.636 -0.885)" fill="#3f3d56" stroke="#707070" stroke-width="1"/>
        <path id="パス_235" data-name="パス 235" d="M423.936,80.251q-.209-.366-.444-.7c-.148-.235-.313-.461-.479-.679a3.01,3.01,0,0,0-.244-.313,8.731,8.731,0,0,0-2.541-2.3,1.842,1.842,0,0,0-.183-.1,2.664,2.664,0,0,0-.426-.191,3.448,3.448,0,0,0-.818-.218,2.958,2.958,0,0,0-.392-.026c-.1,0-.191.009-.287.017l-.174.026a1.93,1.93,0,0,0-.217.044,1.727,1.727,0,0,0-.226.07,2.27,2.27,0,0,0-.218.087,1.825,1.825,0,0,0-.226.113c-.078.044-.148.087-.217.131s-.148.1-.218.157q3.994,2.258,7.814,4.786c-.157-.313-.322-.609-.5-.905h0Z" transform="translate(-185.636 -0.885)" fill="#3f3d56" stroke="#707070" stroke-width="1"/>
        <path id="パス_236" data-name="パス 236" d="M417.373,105.024c.508.061,1.015.107,1.52.13a20.807,20.807,0,0,0,4.613-.257,21.779,21.779,0,1,0-25.032-24.675c-.027.18-.055.353-.074.533a21.787,21.787,0,0,0,18.973,24.269h0Z" transform="translate(-185.421 -0.72)" fill="#ffb6b6" stroke="#707070" stroke-width="1"/>
        <path id="パス_237" data-name="パス 237" d="M393.5,79.305c3.091,1.529,8.142-3.277,10.076-.512.314-.6.661-1.175,1-1.722.31-.489.754-1.533,1.268-1.712a7.935,7.935,0,0,0,.168,5.511c3.049,1.139,7.041-1.383,9.863-4.366,4.431-4.677,11.667,7.317,9.956,13.524,2.177-2.659,6.9-1.159,8.5,1.881s-1.1,5.462-1.682,8.845l4.365-.554c2.754-2.682,2.561-7.2,4.829-10.311,3.788-5.2,5.256-10.511,2.408-15.881-2.526-4.748-2.762-10.892-7.4-13.629,2.025-.99-5.176.557-3.252-2.67s-8.365-3.61-9.037-1.885c-2.942-3.521-5.91-5.843-9.53-3.022-3.555,2.776-3.187,5.694-7.362,5.433-1.959-.121-1.744,3.531-2.908,5.124s-5.659,2.6-5.878,2.431c-1.189-.93-5.233,6.987-5.233,6.987s-3.279,4.978-.163,6.527h0Z" transform="translate(-185.35 -0.603)" fill="#2f2e41" stroke="#707070" stroke-width="1"/>
        <g id="グループ_1473" data-name="グループ 1473" transform="translate(94.164)">
          <path id="パス_238" data-name="パス 238" d="M337.628,3.084H292.821a7.194,7.194,0,0,0-7.179,7.188V55.079a7.576,7.576,0,0,0,.1,1.183,7.323,7.323,0,0,0,.522,1.74,7.2,7.2,0,0,0,6.561,4.255h44.807A7.2,7.2,0,0,0,344.19,58a7.4,7.4,0,0,0,.626-2.924V10.272a7.2,7.2,0,0,0-7.188-7.188ZM343.241,58a6.315,6.315,0,0,1-5.613,3.411H292.821A6.315,6.315,0,0,1,287.208,58a6,6,0,0,1-.609-1.74,5.93,5.93,0,0,1-.113-1.183V10.272A1.362,1.362,0,0,1,286.5,10V9.994a6.325,6.325,0,0,1,6.318-6.065h22.591a28.484,28.484,0,0,1,21.016,9.233.777.777,0,0,0,.078.087l.043.044a28.4,28.4,0,0,1,6.979,14.228c.035.209.078.409.1.618.009.044.009.087.017.122a28.3,28.3,0,0,1,.313,4.229V55.079a5.931,5.931,0,0,1-.113,1.183,6,6,0,0,1-.609,1.74h0Z" transform="translate(-278.269 -0.036)" fill="#e6e6e6" stroke="#707070" stroke-width="1"/>
          <path id="パス_239" data-name="パス 239" d="M343.932,32.64c0-15.9-14.245-29.815-29.957-32.277-19.887-3.117-38.171,14.409-35.54,32.371,2.3,15.735,29.314,38.558,36.7,24.475,8.454-16.115,28.8-8.665,28.8-24.569Z" transform="translate(-278.182 0)" fill="#11b7da" stroke="#707070" stroke-width="1"/>
          <g id="グループ_1472" data-name="グループ 1472" transform="translate(20.034 20.027)">
            <path id="パス_240" data-name="パス 240" d="M321.431,20.264H306.968a.661.661,0,1,0,0,1.323h14.463a.661.661,0,0,0,0-1.323Z" transform="translate(-298.545 -20.264)" fill="#fff" stroke="#707070" stroke-width="1"/>
            <path id="パス_241" data-name="パス 241" d="M321.431,34.537H306.968a.659.659,0,0,0-.661.653.669.669,0,0,0,.661.67h14.463a.669.669,0,0,0,.661-.67A.659.659,0,0,0,321.431,34.537Z" transform="translate(-298.545 -20.431)" fill="#fff" stroke="#707070" stroke-width="1"/>
            <path id="パス_242" data-name="パス 242" d="M329.1,27.4H299.114a.661.661,0,1,0,0,1.323H329.1a.661.661,0,0,0,0-1.323Z" transform="translate(-298.453 -20.347)" fill="#fff" stroke="#707070" stroke-width="1"/>
          </g>
        </g>
        <g id="グループ_1474" data-name="グループ 1474" transform="translate(186.988 139.63)">
          <path id="パス_243" data-name="パス 243" d="M384.424,157.729l17.718,8.58-3.489,10.805-18.41-9.737a6.59,6.59,0,1,1,4.181-9.648h0Z" transform="translate(-372.103 -141.434)" fill="#ffb6b6" stroke="#707070" stroke-width="1"/>
          <path id="パス_244" data-name="パス 244" d="M460.2,146.938v-.009a11.6,11.6,0,0,0-7.658-5.178l-2.471-.47c-6.092,11.365-11.722,22.974-12.775,37.054L411.466,168.2l-1.166-.452-2.341-3.054-3.559.426-.627-1.079v-.009l-1.044-1.767-7.5.235-.07.165-.009.009-3.655,8.894-.009.009-.5,1.218-.348.844a14.857,14.857,0,0,0,.313,4.4v.017a3.6,3.6,0,0,0,1.471,2.323c.627.348,2.045-.618,2.8-.191.348.2-.009,1.767.366,1.975.244.139,2-.8,2.254-.661,2,1.123,4.264,2.445,6.675,3.872,1.227.731,2.489,1.479,3.777,2.263,13.419,8.067,29.37,18.214,30.693,18.91.1.052.191.1.287.139a10.813,10.813,0,0,0,7.98.653,10.023,10.023,0,0,0,1.636-.653,10.312,10.312,0,0,0,2.558-1.767,10.742,10.742,0,0,0,3.307-6.135l7.118-43.7a11.632,11.632,0,0,0-1.68-8.145Z" transform="translate(-372.319 -141.281)" fill="#3f3d56" stroke="#707070" stroke-width="1"/>
        </g>
        <path id="パス_245" data-name="パス 245" d="M325.258,187.885a8.824,8.824,0,0,0-6.118-6.535,7,7,0,0,0-3.551-.052,7.142,7.142,0,0,0-3.376,1.9c-2.376-1.114-5.683-1.279-9.355-1.279h-6.092a13.217,13.217,0,0,0-13.053,13.053c-1.88,6.126.444,10.329,4.717,12.183a15.484,15.484,0,0,0,8.337.87h6.092a9.109,9.109,0,0,0,5.935-.87c3.176-1.619,5.674-5.012,6.779-9.181a7.225,7.225,0,0,0,8.946-3.6,9.172,9.172,0,0,0,.74-6.483Zm-6.631,4.795a5.827,5.827,0,0,1-2.541,2.541c-.035.348-.087.7-.139,1.036.392.157.209.148-.122.07-.574-.139-1.592-.513-.87-.687a5.193,5.193,0,0,0,1.131-.418,19.384,19.384,0,0,0-.174-5.474c0-2.663-.8-4.421-2.167-5.587a5.378,5.378,0,0,1,3.524-1.331,8.31,8.31,0,0,1,1.505.122c2.028.357,3.455,1.549,4.1,4.186C323.318,188.964,319.454,191.122,318.627,192.679Z" transform="translate(-184.074 -2.117)" fill="#f2f2f2" stroke="#707070" stroke-width="1"/>
      </g>
      <path id="パス_246" data-name="パス 246" d="M210.827,204.368a13.217,13.217,0,0,0-13.053-13.053h-6.092c-3.463,0-6.6.148-8.937,1.1-.148.061-.278.122-.418.183a7.183,7.183,0,0,0-3.376-1.9,7.516,7.516,0,0,0-6.535,1.584,9.412,9.412,0,0,0-2.393,11.487,7.711,7.711,0,0,0,2.062,2.489,7.222,7.222,0,0,0,2.741,1.349,7.171,7.171,0,0,0,4.142-.235,15.753,15.753,0,0,0,3.777,6.927,9.725,9.725,0,0,0,8.937,3.124h6.092C206.633,218.7,213.725,213.819,210.827,204.368Zm-32.2-5.221a19.382,19.382,0,0,0-.174,5.474,5.194,5.194,0,0,0,1.131.418c1.14.278-2.054,1.036-.992.618-.052-.339-.1-.687-.139-1.036a5.573,5.573,0,0,1-1.888-1.549,6.506,6.506,0,0,1-.653-.992c-.827-1.558-4.69-3.716-4.247-5.543a5.294,5.294,0,0,1,2.367-3.577.009.009,0,0,1,.009-.009,6.338,6.338,0,0,1,3.22-.722,5.378,5.378,0,0,1,3.533,1.331C179.43,194.726,178.629,196.484,178.629,199.147Z" transform="translate(-1.976 -2.227)" fill="#f2f2f2" stroke="#707070" stroke-width="1"/>
      <path id="パス_247" data-name="パス 247" d="M18.439,285.247h201.1c1.729,0,3.131,3.971,3.131,8.87L196.566,313.8c0,4.9-1.4,8.87-3.131,8.87h-175c-1.729,0-3.131-3.971-3.131-8.87V294.117C15.308,289.218,16.71,285.247,18.439,285.247Z" transform="translate(-0.179 -3.334)" fill="#f2f2f2" stroke="#707070" stroke-width="1"/>
      <g id="グループ_1476" data-name="グループ 1476" transform="translate(39.358 182.353)">
        <path id="パス_248" data-name="パス 248" d="M102.409,196l3.543,23.569-13.181,3.9-2.86-25.052a7.978,7.978,0,1,1,12.5-2.42Z" transform="translate(-40.379 -184.51)" fill="#ffb6b6" stroke="#707070" stroke-width="1"/>
        <path id="パス_249" data-name="パス 249" d="M109.163,229.6c.94,10.643-5.387,5.987-10.364,16.377-1.888,3.942-7.493,3.359-9.572,6.962-3.168,5.482-.252,30.1-5.874,33.129-5.648,3.046-8.3-5.761-12.766-10.295-4.368-4.438-9.485-2.7-13.219-7.649-3.759-4.969-8.015-9.4-11.774-14.341-.078-.1-.148-.2-.218-.3-1.723-13.558-7.336-29.526-4.986-36.732a27.732,27.732,0,0,1,9.076-1.862c4.821.061,2.785,2.689,6.927,4.76,3.481,1.74,7.78,10.843,11.139,12.87,2.393,1.436,8.3,12.844,11.391,11.861,5.056-1.61,10.034-24.888,8.85-29.152-1-3.559-6-8.015-6.135-11.6a3.068,3.068,0,0,1,0-.4c5.021,1.8,14.35-2.793,19.493-1.131,3.672,1.192,8.006,5.674,8.258,9.494.261,3.916-.574,14.08-.226,18Z" transform="translate(-39.824 -184.711)" fill="#11b7da" stroke="#707070" stroke-width="1"/>
      </g>
      <path id="パス_250" data-name="パス 250" d="M168.57,189.174a3.9,3.9,0,0,0-3.655-1.3l-40.369,7.214a16.012,16.012,0,0,1-10.678-1.8l-5.987-3.368-11.208-6.309L94.5,182.4l-9.12-5.134-2.863-1.61a3.923,3.923,0,0,0-5.761,2.593l-2.828,13.219-.209.949-1.593,7.458-3.986,18.579-.627,2.95-.278,1.279L65.2,232.206l-.383,1.758-5.4,25.245-.47,2.184a3.843,3.843,0,0,0,.87,3.385,2.629,2.629,0,0,0,.3.322,3.871,3.871,0,0,0,3.794.87l1.131-.348,8.519-2.585,19.519-5.917,4.177-1.271,5.134-1.558a5.564,5.564,0,0,1,1.636-.244,5.642,5.642,0,0,1,3.907,1.558l25.236,24,1.114,1.062a3.921,3.921,0,0,0,6.187-1.062,3.059,3.059,0,0,0,.235-.548l7.057-21.233,1.21-3.637,3.933-11.835.313-.94c17.26,11.024,14.463-23.782,16.108-48.436a3.88,3.88,0,0,0-.757-3.8Z" transform="translate(-0.688 -2.047)" fill="#f2f2f2" stroke="#707070" stroke-width="1"/>
      <path id="パス_251" data-name="パス 251" d="M163.287,193.577a3.9,3.9,0,0,0-3.655-1.3l-40.369,7.214a16.012,16.012,0,0,1-10.678-1.8l-5.987-3.368L91.39,188.016,89.214,186.8l-9.12-5.134-2.863-1.61a3.923,3.923,0,0,0-5.761,2.593l-2.828,13.219-.209.949-1.592,7.458-3.986,18.579-.627,2.95-.278,1.279-2.036,9.529-.383,1.758-5.4,25.245-.47,2.184a3.843,3.843,0,0,0,.87,3.385,2.629,2.629,0,0,0,.3.322,3.871,3.871,0,0,0,3.794.87l1.131-.348,8.519-2.585L87.8,261.523l4.177-1.271,5.134-1.558a5.564,5.564,0,0,1,1.636-.244,5.642,5.642,0,0,1,3.907,1.558l25.236,24L129,285.071a3.921,3.921,0,0,0,6.187-1.062,3.057,3.057,0,0,0,.235-.548l7.057-21.233,1.21-3.637,3.933-11.835.313-.94c17.26,11.024,14.463-23.782,16.108-48.436a3.88,3.88,0,0,0-.757-3.8Z" transform="translate(-0.626 -2.099)" fill="#e6e6e6" stroke="#707070" stroke-width="1"/>
      <path id="パス_252" data-name="パス 252" d="M49.3,270.843l.827,34.99,49.592-1.365L89.7,265.741Z" transform="translate(-0.576 -3.106)" fill="#ffb6b6" stroke="#707070" stroke-width="1"/>
      <path id="パス_253" data-name="パス 253" d="M107.92,391.542c.6-2.837-1.331-.54-2.637-1.74l-.1-.1c-1.418-1.575-3.2-2.28-3.176-4.238s-3.385-.209-5.3-2.123a23.857,23.857,0,0,0-3.168-2.193c-4.952-3.081-13.976-8.111-16.682-9.616-.5-.278-.792-.435-.792-.435s-.009.148-.035.435c-.148,1.819-.757,9.189-1.5,18.275-.044.574-.087,1.157-.139,1.74H42.332c.035-.592.052-1.175.061-1.74a24.781,24.781,0,0,0-.8-7.362c-1.131-3.8-2.141-7.423-2.933-10.913-2.9-12.714-2.863-23.731,5.2-35.731,1.488-2.21,1.775-9.25,1.775-9.25s2.741,2.715,3.446,3.394c-.174-.183-.522-.531-1.1-1.105-3.255-3.255-3.15-4.238-1.479-6.039.3-.313.635-.653,1.018-1.036,2.55-2.55,0,0-1.279-1.5s1.914-5.526,1.914-5.526l-1.21-6.057-.7-3.516,3.7-.644,9.9-1.732,37.28-6.509.7,1.8,6.318,16.073c1.558.9,3.185,4.421,4.647,8.641a175.647,175.647,0,0,1,4.873,18.153l41.2,48.854.4.479c.348.409.67.835.975,1.262H107.92Z" transform="translate(-0.431 -3.463)" fill="#2f2e41" stroke="#707070" stroke-width="1"/>
      <rect id="長方形_1275" data-name="長方形 1275" width="6.092" height="15.664" transform="translate(46.991 372.415)" fill="#e6e6e6" stroke="#707070" stroke-width="1"/>
      <path id="パス_254" data-name="パス 254" d="M16.181,372.417H84.058a9.137,9.137,0,0,1,9.137,9.137h0a9.137,9.137,0,0,1-9.137,9.137H16.181a9.137,9.137,0,0,1-9.137-9.137h0A9.137,9.137,0,0,1,16.181,372.417Z" transform="translate(-0.082 -4.353)" fill="#f2f2f2" stroke="#707070" stroke-width="1"/>
      <path id="パス_255" data-name="パス 255" d="M10.918,389.694h0a7.4,7.4,0,0,1-7.4-7.4V294.4a7.4,7.4,0,0,1,7.4-7.4h0a7.4,7.4,0,0,1,7.4,7.4c22.466,17.193,13.335,51.41,0,87.892a7.4,7.4,0,0,1-7.4,7.4h0Z" transform="translate(-0.041 -3.355)" fill="#f2f2f2" stroke="#707070" stroke-width="1"/>
      <path id="パス_256" data-name="パス 256" d="M100.54,292.042c-1.434,10.518-11.478,1.253-21.581-.5-9.4-1.619-20.572,14.776-30.632,16.16-6.5.9-1.375-4.5.87-27.847.287-3-3.376-22.9-3.82-26.428C43.653,239.873,38.041,223.9,40.39,216.7a5.379,5.379,0,0,1,1.993-2.9c4.464-3.124,6.457-5.639,9.459-10.129,2.541-3.812,4.386-6.753,9.12-7.057,4.464-.287,9.52.687,13.828,1.627,4.708,1.036-.635.67.513,3.3.557,1.288,1.514,6.039,2.611,7.832h0a8.869,8.869,0,0,1,9.168,2.739c2.628,3.053,5,5.856,6.627,10.21,2.454,6.509-3.733,18.092-1,24.47,2.463,5.761-3.559,18.04-.87,22.626,3.411,5.839,11.313,3.481,8.7,22.626h0Z" transform="translate(-0.466 -2.298)" fill="#11b7da" stroke="#707070" stroke-width="1"/>
      <rect id="長方形_1276" data-name="長方形 1276" width="1.74" height="29.639" transform="translate(120.006 206.138) rotate(-82.737)" fill="#fff" stroke="#707070" stroke-width="1"/>
      <rect id="長方形_1277" data-name="長方形 1277" width="1.74" height="29.639" transform="translate(118.401 214.69) rotate(-82.737)" fill="#fff" stroke="#707070" stroke-width="1"/>
      <rect id="長方形_1278" data-name="長方形 1278" width="1.74" height="29.639" transform="translate(117.531 221.652) rotate(-82.737)" fill="#fff" stroke="#707070" stroke-width="1"/>
      <circle id="楕円形_39" data-name="楕円形 39" cx="18.115" cy="18.115" r="18.115" transform="translate(56.857 158.931)" fill="#ffb6b6" stroke="#707070" stroke-width="1"/>
      <g id="グループ_1477" data-name="グループ 1477" transform="translate(41.26 191.688)">
        <path id="パス_257" data-name="パス 257" d="M163.575,197.468l-19.644,8.918,3.529,11.933,20.433-10.168a7.222,7.222,0,1,0-4.318-10.683h0Z" transform="translate(-42.943 -193.956)" fill="#ffb6b6" stroke="#707070" stroke-width="1"/>
        <path id="パス_258" data-name="パス 258" d="M145.522,204.128l-7.572,3.747-13.531,2.655-18.343,7.531-2.782,1.138-12.838-2.438-8.889-1.7-2.93-.556-10.663-2.033-2.12-.133c-.58-.166-1.207-.323-1.895-.464a46.124,46.124,0,0,0-7.015-.885c-.757-.037-1.524-.058-2.285-.052-6.505.016-12.745,1.553-12.9,6.194a24.317,24.317,0,0,0,2.094,10.692c.222.5.454.977.705,1.456a24.5,24.5,0,0,0,15.08,12.2,24.9,24.9,0,0,0,4.454.8l.318-.031,1.19-.1,1.954-.173,3.585-.324,28.149-2.527,3.365-.3,3.12-.284.071-.033c3.983-1.709,14.98-6.426,26.08-11.308,10.173-4.479,14.466-5.031,17.494-6.217a11.364,11.364,0,0,0,1.689-.807c.483-.295,9.314-6.32,9.363-6.441a3.765,3.765,0,0,0-.417-2.2,83.584,83.584,0,0,0-5.527-10.42l-.671-1.1-8.333,4.12h0Z" transform="translate(-41.748 -194.026)" fill="#11b7da" stroke="#707070" stroke-width="1"/>
      </g>
      <path id="パス_259" data-name="パス 259" d="M19.745,134.677A19.745,19.745,0,0,0,0,154.423V369.905a19.768,19.768,0,0,0,11.583,17.97h.026a19.442,19.442,0,0,0,8.137,1.775H168.491v-11.9H20.615c-2.767,10.164-4.6,9.868-6.318,9.32a17.489,17.489,0,0,1-5.6-2.959c-.017,0-.017-.009-.017-.017a17.738,17.738,0,0,1-5.2-6.457,17.936,17.936,0,0,1-1.74-7.728V227.5a91.084,91.084,0,0,1,91.084-91.084H264.215v-1.74H19.745Z" transform="translate(0 -1.574)" fill="#3f3d56" stroke="#707070" stroke-width="1"/>
      <path id="パス_260" data-name="パス 260" d="M95.994,169.154c-.009,1.862-.017,5.526-1.627,6.448l-.418-.2a10.941,10.941,0,0,1-1-.748c-1.149-.94-2.611-2.236-3.611-2.41a35.162,35.162,0,0,1,.148-4.69c.043-.374.087-.748.139-1.123-.148.252-.287.5-.426.766a26.014,26.014,0,0,0-2,4.865c-1.653.017-3.864-.209-4.76,1.175-1.3,2.01.557,6.292-2.6,8.145a6.92,6.92,0,0,1-2.759.809,4.738,4.738,0,0,1,3.646,2.411c1.653,3.307,3.063,7.136,2.315,10.66a9,9,0,0,1-.479,1.54c-1.27,3.063-4.212,5.03-6.37,7.553a1.5,1.5,0,0,0-.113.131c-1.662,1.984-2.219,3.611-2.045,5.152.313,2.828,3.072,5.352,5.917,9.146,1.053,1.41-2.088,8.728-1.192,10.242a5.592,5.592,0,0,1,.679,5.047c-.774,1.723-2.515,2.489-4.447,2.785-5.517-3.785-10.26-8.606-12.392-14.289-1.845-4.908-1.749-10.443,1.471-16.517a27.135,27.135,0,0,0-3.246,17.857c.026.218.061.426.1.635a8.6,8.6,0,0,0,.766,2.254c1.558,3.107,4.795,5.16,7.179,8.023-1,1.009-2.637,2.55-4.229,3.968a44.535,44.535,0,0,1-3.577,2.95,9.924,9.924,0,0,1-1.793-3.655c-.235-.7-.47-1.479-.687-2.289a130.82,130.82,0,0,1-2.767-13.158c-.792,1.488-1.018,5.691-.905,10.016.017.635.044,1.27.07,1.9a5.71,5.71,0,0,1-10.042,3.994c-.731-.862-1.479-1.827-2.245-2.915a36.476,36.476,0,0,1,1.8-12.279,1.4,1.4,0,0,0,.052-.183c-.174.252-2,4.795-3.437,8.293-.74,1.793-1.375,3.307-1.645,3.838.27-1.61.783-3.594,1.323-5.535,1.227-4.36,2.611-8.459,1.749-7.327A27.306,27.306,0,0,0,37.4,234.246c-.044.252-.087.5-.113.766A11.287,11.287,0,0,1,35,234.168a7.324,7.324,0,0,1-3.681-6.292c-.209-4.073,1.593-7.762,5.3-7.188,1.41.218,2-.618,2.08-1.984.191-2.828-1.767-7.945-2.907-10.695-.487-1.175-.992-2.393-1.427-3.62a16.084,16.084,0,0,0,3.411-10.939,20.9,20.9,0,0,1-4.273,7.91,10.58,10.58,0,0,1,.3-6.065c2.532-6.509,7.936-3.751,11.757-9.6,4.464-6.831,3.15-10.4,5.743-18.144a12.4,12.4,0,0,1,7.023-7.466c3.272-1.314,7.936-9.677,20.3-.5.2-.183.4-.357.609-.513,3.507-2.645,7.823-.957,12.444-.357,4.891.635,3.272-.3,5.909,3.872.992,1.575-1.575,4.7-1.592,6.561h0Z" transform="translate(-0.366 -1.816)" fill="#2f2e41" stroke="#707070" stroke-width="1"/>
      <g id="グループ_1479" data-name="グループ 1479" transform="translate(144.299 101.062)">
        <path id="パス_261" data-name="パス 261" d="M203.284,107.856a.008.008,0,0,0-.009-.009,7.087,7.087,0,0,0-3.707-2.149h-.009a7.062,7.062,0,0,0-1.558-.174H153.194a7.2,7.2,0,0,0-7.188,7.188v44.807a7.194,7.194,0,0,0,7.188,7.179H198a7.186,7.186,0,0,0,7.179-7.179V112.712a7.12,7.12,0,0,0-1.9-4.856Zm1.053,49.663A6.336,6.336,0,0,1,198,163.854H153.194a6.336,6.336,0,0,1-6.335-6.335V134.928c0-.2,0-.392.009-.592a28.335,28.335,0,0,1,.322-3.759c.026-.209.07-.409.1-.618a28.4,28.4,0,0,1,6.979-14.228l.044-.044a28.469,28.469,0,0,1,21.094-9.32H198a6.343,6.343,0,0,1,6.335,6.344v44.807Z" transform="translate(-146.006 -102.296)" fill="#e6e6e6" stroke="#707070" stroke-width="1"/>
        <path id="パス_262" data-name="パス 262" d="M146.811,135.077c0-15.9,14.245-29.815,29.957-32.277,19.887-3.117,38.171,7.447,35.54,25.409-2.3,15.735-29.314,45.52-36.7,31.437-8.454-16.115-28.8-8.665-28.8-24.569h0Z" transform="translate(-146.015 -102.257)" fill="#11b7da" stroke="#707070" stroke-width="1"/>
        <g id="グループ_1478" data-name="グループ 1478" transform="translate(15.203 20.207)">
          <path id="パス_263" data-name="パス 263" d="M184.367,122.7H169.9a.661.661,0,1,0,0,1.323h14.463a.661.661,0,1,0,0-1.323Z" transform="translate(-161.48 -122.703)" fill="#fff" stroke="#707070" stroke-width="1"/>
          <path id="パス_264" data-name="パス 264" d="M184.367,136.976H169.9a.659.659,0,0,0-.661.653.669.669,0,0,0,.661.67h14.463a.669.669,0,0,0,.661-.67A.659.659,0,0,0,184.367,136.976Z" transform="translate(-161.48 -122.87)" fill="#fff" stroke="#707070" stroke-width="1"/>
          <path id="パス_265" data-name="パス 265" d="M192.037,129.844H162.05a.661.661,0,1,0,0,1.323h29.988a.661.661,0,1,0,0-1.323Z" transform="translate(-161.388 -122.787)" fill="#fff" stroke="#707070" stroke-width="1"/>
        </g>
      </g>
      <g id="グループ_1481" data-name="グループ 1481" transform="translate(42.537 37.517)">
        <path id="パス_266" data-name="パス 266" d="M44.781,37.961a1.742,1.742,0,0,0-1.74,1.74V66.678a1.74,1.74,0,0,0,3.481,0V39.7a1.742,1.742,0,0,0-1.74-1.74Z" transform="translate(-43.041 -37.961)" fill="#3f3d56" stroke="#707070" stroke-width="1"/>
        <g id="グループ_1480" data-name="グループ 1480" transform="translate(7.952 4.48)">
          <ellipse id="楕円形_40" data-name="楕円形 40" cx="10.846" cy="10.617" rx="10.846" ry="10.617" transform="translate(0 0.279)" fill="#11b7da" stroke="#707070" stroke-width="1"/>
          <path id="パス_267" data-name="パス 267" d="M149.3,49.759H90.922a3.632,3.632,0,1,1,0-7.264H149.3a3.632,3.632,0,0,1,0,7.264Z" transform="translate(-51.51 -42.494)" fill="#f2f2f2" stroke="#707070" stroke-width="1"/>
          <path id="パス_268" data-name="パス 268" d="M194.86,62.2H90.922a3.632,3.632,0,1,1,0-7.264H194.859a3.632,3.632,0,0,1,0,7.264Z" transform="translate(-51.51 -42.64)" fill="#f2f2f2" stroke="#707070" stroke-width="1"/>
        </g>
      </g>
      <g id="グループ_1483" data-name="グループ 1483" transform="translate(186.747 365.018)">
        <path id="パス_269" data-name="パス 269" d="M190.7,369.336a1.742,1.742,0,0,0-1.74,1.74v26.977a1.74,1.74,0,0,0,3.481,0V371.076A1.742,1.742,0,0,0,190.7,369.336Z" transform="translate(-188.956 -369.336)" fill="#3f3d56" stroke="#707070" stroke-width="1"/>
        <g id="グループ_1482" data-name="グループ 1482" transform="translate(7.952 4.48)">
          <ellipse id="楕円形_41" data-name="楕円形 41" cx="10.846" cy="10.617" rx="10.846" ry="10.617" transform="translate(0 0.279)" fill="#11b7da" stroke="#707070" stroke-width="1"/>
          <path id="パス_270" data-name="パス 270" d="M295.217,381.133H236.839a3.632,3.632,0,1,1,0-7.264h58.378a3.632,3.632,0,1,1,0,7.264Z" transform="translate(-197.425 -373.869)" fill="#f2f2f2" stroke="#707070" stroke-width="1"/>
          <path id="パス_271" data-name="パス 271" d="M340.776,393.572H236.839a3.632,3.632,0,1,1,0-7.264H340.776a3.632,3.632,0,1,1,0,7.264Z" transform="translate(-197.425 -374.014)" fill="#f2f2f2" stroke="#707070" stroke-width="1"/>
        </g>
      </g>
      <g id="グループ_1484" data-name="グループ 1484" transform="translate(84.204 142.197)">
        <ellipse id="楕円形_42" data-name="楕円形 42" cx="3.68" cy="3.762" rx="3.68" ry="3.762" fill="#3f3d56" stroke="#707070" stroke-width="1"/>
        <ellipse id="楕円形_43" data-name="楕円形 43" cx="3.68" cy="3.762" rx="3.68" ry="3.762" transform="translate(12.711)" fill="#3f3d56" stroke="#707070" stroke-width="1"/>
        <ellipse id="楕円形_44" data-name="楕円形 44" cx="3.68" cy="3.762" rx="3.68" ry="3.762" transform="translate(25.422)" fill="#3f3d56" stroke="#707070" stroke-width="1"/>
      </g>
      <g id="グループ_1485" data-name="グループ 1485" transform="translate(339.516 67.975)">
        <ellipse id="楕円形_45" data-name="楕円形 45" cx="3.68" cy="3.762" rx="3.68" ry="3.762" fill="#3f3d56" stroke="#707070" stroke-width="1"/>
        <ellipse id="楕円形_46" data-name="楕円形 46" cx="3.68" cy="3.762" rx="3.68" ry="3.762" transform="translate(12.711)" fill="#3f3d56" stroke="#707070" stroke-width="1"/>
        <ellipse id="楕円形_47" data-name="楕円形 47" cx="3.68" cy="3.762" rx="3.68" ry="3.762" transform="translate(25.422)" fill="#3f3d56" stroke="#707070" stroke-width="1"/>
      </g>
      <path id="パス_272" data-name="パス 272" d="M234.61,226.432a.572.572,0,0,0,.832.661,48.54,48.54,0,0,1,10.426-4.449.575.575,0,0,0,.027-1.1l-4.547-1.527,17.365-21.866-1.182-.939-17.365,21.866-2.519-4.084a.575.575,0,0,0-1.066.276,48.584,48.584,0,0,1-1.972,11.164Z" transform="translate(-2.742 -2.305)" fill="#3f3d56" stroke="#707070" stroke-width="1"/>
      <path id="パス_273" data-name="パス 273" d="M259.254,270a.572.572,0,0,0,.762-.741,48.543,48.543,0,0,1-3.079-10.91.575.575,0,0,0-1.088-.168l-2.1,4.314-19.464-20.02-1.083,1.053,19.464,20.02-4.373,1.975a.575.575,0,0,0,.137,1.092A48.587,48.587,0,0,1,259.255,270Z" transform="translate(-2.726 -2.834)" fill="#3f3d56" stroke="#707070" stroke-width="1"/>
    </g>
  </g>
</svg>
