<svg xmlns="http://www.w3.org/2000/svg" xmlns:xlink="http://www.w3.org/1999/xlink" width="459" height="397" viewBox="0 0 459 397">
  <defs>
    <clipPath id="clip-path">
      <rect id="長方形_1283" data-name="長方形 1283" width="459" height="397" transform="translate(12445.635 -91)" fill="#fff" stroke="#707070" stroke-width="1"/>
    </clipPath>
  </defs>
  <g id="マスクグループ_5" data-name="マスクグループ 5" transform="translate(-12445.635 91)" clip-path="url(#clip-path)">
    <g id="icon-contact" transform="translate(12446 -91.23)">
      <path id="パス_274" data-name="パス 274" d="M722.167,298.071a45.287,45.287,0,1,1-13.207-32.164A45.4,45.4,0,0,1,722.167,298.071Z" transform="translate(-406.801 -175.221)" fill="#f2f2f2" stroke="#707070" stroke-width="1"/>
      <path id="パス_275" data-name="パス 275" d="M894.937,339.26l6.384-12.19c-5.725-6.913-24.508-15.3-24.508-15.3l-25.422-23.139a6.075,6.075,0,1,0-7.462,7.406l27.464,32.939Z" transform="translate(-504.003 -189.942)" fill="#9e616a" stroke="#707070" stroke-width="1"/>
      <path id="パス_276" data-name="パス 276" d="M937.786,368.5l9.014,2.87a30.938,30.938,0,0,0,20.075-.447h0a11.172,11.172,0,0,0,7.215-9.327h0a11.145,11.145,0,0,0-9.278-12.061c-8.454-1.389-19.346-2.074-23.232,2.55l-.039.047Z" transform="translate(-549.944 -220.026)" fill="#3f3d56" stroke="#707070" stroke-width="1"/>
      <circle id="楕円形_52" data-name="楕円形 52" cx="45.404" cy="45.404" r="45.404" transform="translate(277.597 94.986)" fill="#fff" stroke="#707070" stroke-width="1"/>
      <path id="パス_277" data-name="パス 277" d="M777.189,327.77a42.662,42.662,0,0,1-3.044,9.715c-8.009,16.944,14.8,11.421,22.951,11.421,8.912,0,17.439,4.686,16.137-16.137-.556-8.895-7.225-16.137-16.137-16.137C789.484,316.632,778.781,320.015,777.189,327.77Z" transform="translate(-472.717 -205.139)" fill="#2f2e41" stroke="#707070" stroke-width="1"/>
      <circle id="楕円形_53" data-name="楕円形 53" cx="13.113" cy="13.113" r="13.113" transform="translate(309.931 117.536)" fill="#ffb6b6" stroke="#707070" stroke-width="1"/>
      <path id="パス_278" data-name="パス 278" d="M793.163,325.573A15.021,15.021,0,0,1,816,338.682c-6.682,1.678-13.7,2.961-20.827.4l-1.683-4.118-.992,4.122c-2.17.887-4.346,1.637-6.521-.009A15.337,15.337,0,0,1,793.163,325.573Z" transform="translate(-479.024 -208.29)" fill="#2f2e41" stroke="#707070" stroke-width="1"/>
      <path id="パス_279" data-name="パス 279" d="M826.669,410.707a45.389,45.389,0,0,1-63.524,4.591l3.894-10.867a11.686,11.686,0,0,1,9.926-6.816l2.478-.152,5.908-5.1s15.918-.568,15.682-.841l9.642,5.8-.008-.04,3.79.232a11.681,11.681,0,0,1,9.926,6.816Z" transform="translate(-468.363 -240.125)" fill="#11b7da" stroke="#707070" stroke-width="1"/>
      <path id="パス_280" data-name="パス 280" d="M786.748,760.177l-1.128-15.691a50.761,50.761,0,0,0-23.831-5.344c11.621,8.983,10.69,26.936,18.739,39.223a30.532,30.532,0,0,0,22.767,13.492l9.672,5.564a51.162,51.162,0,0,0-11.913-41.149,49.421,49.421,0,0,0-9.31-8.188C789.629,754.153,786.748,760.177,786.748,760.177Z" transform="translate(-467.729 -402.503)" fill="#f2f2f2" stroke="#707070" stroke-width="1"/>
      <path id="パス_281" data-name="パス 281" d="M234.9,238.218l-1.128-15.691a50.76,50.76,0,0,0-23.831-5.344c11.621,8.983,10.69,26.936,18.738,39.223A30.532,30.532,0,0,0,251.447,269.9l9.672,5.564a51.163,51.163,0,0,0-11.913-41.149,49.422,49.422,0,0,0-9.31-8.188C237.782,232.194,234.9,238.218,234.9,238.218Z" transform="translate(-209.941 -158.676)" fill="#f2f2f2" stroke="#707070" stroke-width="1"/>
      <path id="パス_282" data-name="パス 282" d="M668.326,705.658h-7.544l-3.589-29.1h11.135Z" transform="translate(-306.999 -316.045)" fill="#9e616a" stroke="#707070" stroke-width="1"/>
      <path id="パス_283" data-name="パス 283" d="M870.313,840.764H845.987v-.308a9.468,9.468,0,0,1,9.467-9.468h0l4.443-3.371,8.29,3.371h2.123Z" transform="translate(-507.062 -443.839)" fill="#2f2e41" stroke="#707070" stroke-width="1"/>
      <path id="パス_284" data-name="パス 284" d="M793.1,705.658h-7.544l-3.589-29.1H793.1Z" transform="translate(-365.287 -316.045)" fill="#9e616a" stroke="#707070" stroke-width="1"/>
      <path id="パス_285" data-name="パス 285" d="M995.09,840.764H970.765v-.308a9.468,9.468,0,0,1,9.467-9.468h0l4.443-3.371,8.29,3.371h2.123Z" transform="translate(-565.35 -443.839)" fill="#2f2e41" stroke="#707070" stroke-width="1"/>
      <path id="パス_286" data-name="パス 286" d="M927.141,544.909l6.345,60.28s8.447,60.357,6.861,68.685.4,9.518.4,9.518l-14.474-1.031s.4-5.156-1.983-7.535-1.19-9.518-1.19-9.518l-28.078-98.191-17.053,51.555s-2.776,56.711-3.173,57.5-1.586,11.5-1.586,11.5H858.533s1.983-6.345-.793-8.328-5.156-.4-2.776-3.966,3.173-7.931,2.38-9.914-.793-9.914-.793-9.914,1.19-107.076,7.932-110.645S927.141,544.909,927.141,544.909Z" transform="translate(-510.799 -311.035)" fill="#2f2e41" stroke="#707070" stroke-width="1"/>
      <circle id="楕円形_54" data-name="楕円形 54" cx="15.607" cy="15.607" r="15.607" transform="translate(370.686 80.61)" fill="#9e616a" stroke="#707070" stroke-width="1"/>
      <path id="パス_287" data-name="パス 287" d="M939.784,449.9c-30.224,6.242-70.277-4.489-70.277-4.489L880.192,399.1l-3.8-48.47a13.191,13.191,0,0,1,8.164-13.452l7.252-2.716,5.994-8.582,17.122.562,6.845,9.009,5.4,2.866,11.71,6.211.051.026v.026l-3.675,35.646-2.216,21.493s6.731,24.173,5.35,27.379-.18,1.654.155,3.366,1.361,1.819,1.515,5.19S939.784,449.9,939.784,449.9Z" transform="translate(-518.049 -209.458)" fill="#3f3d56" stroke="#707070" stroke-width="1"/>
      <path id="パス_288" data-name="パス 288" d="M864.833,852.347H631.364a.523.523,0,0,1,0-1.046H864.831a.523.523,0,1,1,0,1.046Z" transform="translate(-406.559 -454.903)" fill="#ccc" stroke="#707070" stroke-width="1"/>
      <path id="パス_289" data-name="パス 289" d="M913.843,280.172a48.07,48.07,0,0,0,8.16-.782c2.666-.614,8.547-5.162,10.15-7.849h0a23.617,23.617,0,0,0,2.3-7.323,21.488,21.488,0,0,0-4.2-16.956,6.789,6.789,0,0,0-2.8-2.269c-.1-.036-.2-.067-.3-.094a8.376,8.376,0,0,1-4.232-2.47,6.905,6.905,0,0,0-.711-.695,10.317,10.317,0,0,0-4.359-2.05c-2.576-.619-6.26.157-10.951,2.306a11.577,11.577,0,0,1-6.988.4.656.656,0,0,0-.612.228,4.633,4.633,0,0,1-3.115,1.336c-.716.05-1.442,1.062-2.317,2.379-.2.3-.43.648-.6.861l-.034-.4-.394.457a5.621,5.621,0,0,0,2.773,9.089,10.963,10.963,0,0,0,2.213.294c.452.029.92.059,1.369.125a8.475,8.475,0,0,1,6.438,5.335,2.216,2.216,0,0,0,3.372.989,3.662,3.662,0,0,1,3.32-.693,2.43,2.43,0,0,1,1.106,1.191,3.168,3.168,0,0,0,1.238,1.371c1.84.889,2.072,5.034,1.509,8.509-.543,3.349-1.723,5.792-2.871,5.941-.883.115-.983.18-1.043.338l-.054.142.1.129a3.619,3.619,0,0,0,1.535.165Z" transform="translate(-528.31 -169.098)" fill="#2f2e41" stroke="#707070" stroke-width="1"/>
      <path id="パス_290" data-name="パス 290" d="M775.8,376.534a45.973,45.973,0,1,1,45.973-45.973A45.973,45.973,0,0,1,775.8,376.534Zm0-90.809a44.836,44.836,0,1,0,44.836,44.836A44.836,44.836,0,0,0,775.8,285.725Z" transform="translate(-452.8 -190.17)" fill="#3f3d56" stroke="#707070" stroke-width="1"/>
      <circle id="楕円形_55" data-name="楕円形 55" cx="45.404" cy="45.404" r="45.404" transform="translate(118.908 0.569)" fill="#fff" stroke="#707070" stroke-width="1"/>
      <circle id="楕円形_56" data-name="楕円形 56" cx="14.806" cy="14.806" r="14.806" transform="translate(151.608 20.994)" fill="#ffb8b8" stroke="#707070" stroke-width="1"/>
      <path id="bf427902-b9bf-4946-b5d7-5c1c7e04535e" d="M520.12,146.281s3.855-7.369-4.626-8.039c0,0-7.23-6.558-14.6-1.2a7.4,7.4,0,0,0-6.218,4.549s-3.161-1.2-3.856,2.01c0,0-2.313,6.7,0,12.729s3.082,6.7,3.082,6.7-1.623-7.482,7.629-8.152,17.741-6.466,18.512.9,1.619,4.04,1.619,4.04S528.986,149.3,520.12,146.281Z" transform="translate(-340.67 -120.262)" fill="#2f2e41" stroke="#707070" stroke-width="1"/>
      <path id="パス_291" data-name="パス 291" d="M526.691,233.518a45.389,45.389,0,0,1-63.524,4.591l3.894-10.867a11.686,11.686,0,0,1,9.926-6.816l2.478-.152,5.908-5.1s15.918-.568,15.682-.841l9.642,5.8-.008-.04,3.79.232a11.681,11.681,0,0,1,9.926,6.816Z" transform="translate(-328.232 -157.354)" fill="#11b7da" stroke="#707070" stroke-width="1"/>
      <path id="パス_292" data-name="パス 292" d="M478,199.345a45.973,45.973,0,1,1,45.973-45.973A45.973,45.973,0,0,1,478,199.345Zm0-90.809a44.836,44.836,0,1,0,44.836,44.836A44.835,44.835,0,0,0,478,108.536Z" transform="translate(-313.684 -107.399)" fill="#3f3d56" stroke="#707070" stroke-width="1"/>
      <circle id="楕円形_57" data-name="楕円形 57" cx="45.404" cy="45.404" r="45.404" transform="translate(12.931 72.235)" fill="#fff" stroke="#707070" stroke-width="1"/>
      <path id="パス_293" data-name="パス 293" d="M279.23,288.064c1.877-5.983,6.147-11.471,12.051-13.494s14.551,1.059,18.99,5.483c8.12,8.093,10.1,35.893,4.523,44.679-1.11-.059-4.939-.1-6.062-.144l-1.589-5.3v5.243q-2.684-.083-5.41-.115a23.543,23.543,0,0,1-23.244-22.962C278.345,295.63,278.491,290.421,279.23,288.064Z" transform="translate(-241.939 -185.194)" fill="#2f2e41" stroke="#707070" stroke-width="1"/>
      <circle id="楕円形_58" data-name="楕円形 58" cx="12.94" cy="12.94" r="12.94" transform="translate(44.722 96.82)" fill="#9e616a" stroke="#707070" stroke-width="1"/>
      <path id="パス_294" data-name="パス 294" d="M297.2,285.513l14.9-7.46h0a18.727,18.727,0,0,1,10.968,15.515l.371,4.448-6.239-1.588-.684-5.688-1.06,5.244-2.879-.733.027-8.831-2.881,8.824-10.284-2.363Z" transform="translate(-250.701 -187.117)" fill="#2f2e41" stroke="#707070" stroke-width="1"/>
      <path id="パス_295" data-name="パス 295" d="M326.958,367.74a45.389,45.389,0,0,1-63.524,4.591l3.894-10.867a11.686,11.686,0,0,1,9.926-6.816l2.478-.152,5.908-5.1s15.918-.568,15.682-.841l9.642,5.8-.008-.04,3.79.232a11.681,11.681,0,0,1,9.926,6.816Z" transform="translate(-234.93 -220.054)" fill="#11b7da" stroke="#707070" stroke-width="1"/>
      <path id="パス_296" data-name="パス 296" d="M279.114,333.837a45.973,45.973,0,1,1,45.973-45.973,45.973,45.973,0,0,1-45.973,45.973Zm0-90.809a44.836,44.836,0,1,0,44.836,44.836A44.836,44.836,0,0,0,279.114,243.029Z" transform="translate(-220.779 -170.225)" fill="#3f3d56" stroke="#707070" stroke-width="1"/>
      <path id="パス_297" data-name="パス 297" d="M829.929,404.618,823.055,392.7c-8.9,1.131-26.046,12.5-26.046,12.5l-33.157,9.072a6.075,6.075,0,1,0,2.257,10.268l42.526-5.547Z" transform="translate(-464.993 -240.672)" fill="#9e616a" stroke="#707070" stroke-width="1"/>
      <path id="パス_298" data-name="パス 298" d="M879.712,386.948l15.39-12.89,2.239-10.376a11.172,11.172,0,0,0-4.011-11.089h0a11.145,11.145,0,0,0-15.155,1.374c-5.7,6.394-12.115,15.225-10.291,20.984l.018.058Z" transform="translate(-517.142 -220.841)" fill="#3f3d56" stroke="#707070" stroke-width="1"/>
      <path id="パス_299" data-name="パス 299" d="M391.884,461.689H334.059a5.852,5.852,0,0,1-5.845-5.845V420.229a5.852,5.852,0,0,1,5.845-5.845h57.825a5.852,5.852,0,0,1,5.845,5.845v35.615A5.852,5.852,0,0,1,391.884,461.689Z" transform="translate(-265.191 -250.803)" fill="#e6e6e6" stroke="#707070" stroke-width="1"/>
      <path id="パス_300" data-name="パス 300" d="M372.8,461.124H342.013a5.481,5.481,0,0,1-5.474-5.474V428.468a5.481,5.481,0,0,1,5.475-5.474h49.7a5.48,5.48,0,0,1,5.474,5.474v8.272A24.412,24.412,0,0,1,372.8,461.124Z" transform="translate(-269.079 -254.824)" fill="#fff" stroke="#707070" stroke-width="1"/>
      <path id="パス_301" data-name="パス 301" d="M394.758,448.65h-39.78a1.3,1.3,0,1,1,0-2.595h39.781a1.3,1.3,0,1,1,0,2.595Z" transform="translate(-277.087 -265.598)" fill="#11b7da" stroke="#707070" stroke-width="1"/>
      <path id="パス_302" data-name="パス 302" d="M361.2,458.272h-6.222a1.3,1.3,0,1,1,0-2.595H361.2a1.3,1.3,0,1,1,0,2.595Z" transform="translate(-277.087 -270.092)" fill="#11b7da" stroke="#707070" stroke-width="1"/>
      <path id="パス_303" data-name="パス 303" d="M372.222,467.892H354.978a1.3,1.3,0,1,1,0-2.595h17.244a1.3,1.3,0,1,1,0,2.595Z" transform="translate(-277.087 -274.586)" fill="#11b7da" stroke="#707070" stroke-width="1"/>
      <circle id="楕円形_59" data-name="楕円形 59" cx="12.232" cy="12.232" r="12.232" transform="translate(48.773 150.64)" fill="#3f3d56" stroke="#707070" stroke-width="1"/>
      <path id="パス_304" data-name="パス 304" d="M673.678,158.547H615.853a5.852,5.852,0,0,1-5.845-5.845V117.087a5.852,5.852,0,0,1,5.845-5.845h57.825a5.852,5.852,0,0,1,5.845,5.845V152.7a5.852,5.852,0,0,1-5.845,5.845Z" transform="translate(-396.827 -109.194)" fill="#e6e6e6" stroke="#707070" stroke-width="1"/>
      <path id="パス_305" data-name="パス 305" d="M654.592,157.982H623.807a5.481,5.481,0,0,1-5.475-5.474V125.325a5.481,5.481,0,0,1,5.475-5.474h49.7a5.48,5.48,0,0,1,5.474,5.474V133.6A24.412,24.412,0,0,1,654.592,157.982Z" transform="translate(-400.716 -113.216)" fill="#fff" stroke="#707070" stroke-width="1"/>
      <path id="パス_306" data-name="パス 306" d="M676.553,145.508h-39.78a1.3,1.3,0,0,1,0-2.595h39.781a1.3,1.3,0,0,1,0,2.595Z" transform="translate(-408.724 -123.989)" fill="#11b7da" stroke="#707070" stroke-width="1"/>
      <path id="パス_307" data-name="パス 307" d="M642.995,155.13h-6.222a1.3,1.3,0,0,1,0-2.595h6.223a1.3,1.3,0,1,1,0,2.595Z" transform="translate(-408.724 -128.483)" fill="#11b7da" stroke="#707070" stroke-width="1"/>
      <path id="パス_308" data-name="パス 308" d="M654.016,164.75H636.772a1.3,1.3,0,0,1,0-2.595h17.244a1.3,1.3,0,0,1,0,2.595Z" transform="translate(-408.724 -132.977)" fill="#11b7da" stroke="#707070" stroke-width="1"/>
      <circle id="楕円形_60" data-name="楕円形 60" cx="12.232" cy="12.232" r="12.232" transform="translate(198.931 31.765)" fill="#3f3d56" stroke="#707070" stroke-width="1"/>
    </g>
  </g>
</svg>
